<svg width="82" height="18" viewBox="0 0 82 18" fill="none" xmlns="http://www.w3.org/2000/svg">
<g id="Group 142">
<g id="star_rate">
<mask id="mask0_53_19" style="mask-type:alpha" maskUnits="userSpaceOnUse" x="0" y="0" width="18" height="18">
<rect id="Bounding box" width="18" height="18" fill="#D9D9D9"/>
</mask>
<g mask="url(#mask0_53_19)">
<path id="star_rate_2" d="M8.99999 12.9752L6.22499 15.0939C6.08749 15.2064 5.93749 15.2596 5.77499 15.2533C5.61249 15.2471 5.46874 15.2002 5.34374 15.1127C5.21874 15.0252 5.12186 14.9064 5.05311 14.7564C4.98436 14.6064 4.98124 14.4439 5.04374 14.2689L6.11249 10.8002L3.39374 8.86895C3.24374 8.76895 3.14999 8.6377 3.11249 8.4752C3.07499 8.3127 3.08124 8.1627 3.13124 8.0252C3.18124 7.8877 3.26874 7.76582 3.39374 7.65957C3.51874 7.55332 3.66874 7.5002 3.84374 7.5002H7.19999L8.28749 3.9002C8.34999 3.7252 8.44686 3.59082 8.57811 3.49707C8.70936 3.40332 8.84999 3.35645 8.99999 3.35645C9.14999 3.35645 9.29061 3.40332 9.42186 3.49707C9.55311 3.59082 9.64999 3.7252 9.71249 3.9002L10.8 7.5002H14.1562C14.3312 7.5002 14.4812 7.55332 14.6062 7.65957C14.7312 7.76582 14.8187 7.8877 14.8687 8.0252C14.9187 8.1627 14.925 8.3127 14.8875 8.4752C14.85 8.6377 14.7562 8.76895 14.6062 8.86895L11.8875 10.8002L12.9562 14.2689C13.0187 14.4439 13.0156 14.6064 12.9469 14.7564C12.8781 14.9064 12.7812 15.0252 12.6562 15.1127C12.5312 15.2002 12.3875 15.2471 12.225 15.2533C12.0625 15.2596 11.9125 15.2064 11.775 15.0939L8.99999 12.9752Z" fill="#0092E7"/>
</g>
</g>
<g id="star_rate_3">
<mask id="mask1_53_19" style="mask-type:alpha" maskUnits="userSpaceOnUse" x="16" y="0" width="18" height="18">
<rect id="Bounding box_2" x="16" width="18" height="18" fill="#D9D9D9"/>
</mask>
<g mask="url(#mask1_53_19)">
<path id="star_rate_4" d="M25 12.9752L22.225 15.0939C22.0875 15.2064 21.9375 15.2596 21.775 15.2533C21.6125 15.2471 21.4687 15.2002 21.3437 15.1127C21.2187 15.0252 21.1219 14.9064 21.0531 14.7564C20.9844 14.6064 20.9812 14.4439 21.0437 14.2689L22.1125 10.8002L19.3937 8.86895C19.2437 8.76895 19.15 8.6377 19.1125 8.4752C19.075 8.3127 19.0812 8.1627 19.1312 8.0252C19.1812 7.8877 19.2687 7.76582 19.3937 7.65957C19.5187 7.55332 19.6687 7.5002 19.8437 7.5002H23.2L24.2875 3.9002C24.35 3.7252 24.4469 3.59082 24.5781 3.49707C24.7094 3.40332 24.85 3.35645 25 3.35645C25.15 3.35645 25.2906 3.40332 25.4219 3.49707C25.5531 3.59082 25.65 3.7252 25.7125 3.9002L26.8 7.5002H30.1562C30.3312 7.5002 30.4812 7.55332 30.6062 7.65957C30.7312 7.76582 30.8187 7.8877 30.8687 8.0252C30.9187 8.1627 30.925 8.3127 30.8875 8.4752C30.85 8.6377 30.7562 8.76895 30.6062 8.86895L27.8875 10.8002L28.9562 14.2689C29.0187 14.4439 29.0156 14.6064 28.9469 14.7564C28.8781 14.9064 28.7812 15.0252 28.6562 15.1127C28.5312 15.2002 28.3875 15.2471 28.225 15.2533C28.0625 15.2596 27.9125 15.2064 27.775 15.0939L25 12.9752Z" fill="#0092E7"/>
</g>
</g>
<g id="star_rate_5">
<mask id="mask2_53_19" style="mask-type:alpha" maskUnits="userSpaceOnUse" x="32" y="0" width="18" height="18">
<rect id="Bounding box_3" x="32" width="18" height="18" fill="#D9D9D9"/>
</mask>
<g mask="url(#mask2_53_19)">
<path id="star_rate_6" d="M41 12.9752L38.225 15.0939C38.0875 15.2064 37.9375 15.2596 37.775 15.2533C37.6125 15.2471 37.4687 15.2002 37.3437 15.1127C37.2187 15.0252 37.1219 14.9064 37.0531 14.7564C36.9844 14.6064 36.9812 14.4439 37.0437 14.2689L38.1125 10.8002L35.3937 8.86895C35.2437 8.76895 35.15 8.6377 35.1125 8.4752C35.075 8.3127 35.0812 8.1627 35.1312 8.0252C35.1812 7.8877 35.2687 7.76582 35.3937 7.65957C35.5187 7.55332 35.6687 7.5002 35.8437 7.5002H39.2L40.2875 3.9002C40.35 3.7252 40.4469 3.59082 40.5781 3.49707C40.7094 3.40332 40.85 3.35645 41 3.35645C41.15 3.35645 41.2906 3.40332 41.4219 3.49707C41.5531 3.59082 41.65 3.7252 41.7125 3.9002L42.8 7.5002H46.1562C46.3312 7.5002 46.4812 7.55332 46.6062 7.65957C46.7312 7.76582 46.8187 7.8877 46.8687 8.0252C46.9187 8.1627 46.925 8.3127 46.8875 8.4752C46.85 8.6377 46.7562 8.76895 46.6062 8.86895L43.8875 10.8002L44.9562 14.2689C45.0187 14.4439 45.0156 14.6064 44.9469 14.7564C44.8781 14.9064 44.7812 15.0252 44.6562 15.1127C44.5312 15.2002 44.3875 15.2471 44.225 15.2533C44.0625 15.2596 43.9125 15.2064 43.775 15.0939L41 12.9752Z" fill="#0092E7"/>
</g>
</g>
<g id="star_rate_7">
<mask id="mask3_53_19" style="mask-type:alpha" maskUnits="userSpaceOnUse" x="48" y="0" width="18" height="18">
<rect id="Bounding box_4" x="48" width="18" height="18" fill="#D9D9D9"/>
</mask>
<g mask="url(#mask3_53_19)">
<path id="star_rate_8" d="M57 12.9752L54.225 15.0939C54.0875 15.2064 53.9375 15.2596 53.775 15.2533C53.6125 15.2471 53.4687 15.2002 53.3437 15.1127C53.2187 15.0252 53.1219 14.9064 53.0531 14.7564C52.9844 14.6064 52.9812 14.4439 53.0437 14.2689L54.1125 10.8002L51.3937 8.86895C51.2437 8.76895 51.15 8.6377 51.1125 8.4752C51.075 8.3127 51.0812 8.1627 51.1312 8.0252C51.1812 7.8877 51.2687 7.76582 51.3937 7.65957C51.5187 7.55332 51.6687 7.5002 51.8437 7.5002H55.2L56.2875 3.9002C56.35 3.7252 56.4469 3.59082 56.5781 3.49707C56.7094 3.40332 56.85 3.35645 57 3.35645C57.15 3.35645 57.2906 3.40332 57.4219 3.49707C57.5531 3.59082 57.65 3.7252 57.7125 3.9002L58.8 7.5002H62.1562C62.3312 7.5002 62.4812 7.55332 62.6062 7.65957C62.7312 7.76582 62.8187 7.8877 62.8687 8.0252C62.9187 8.1627 62.925 8.3127 62.8875 8.4752C62.85 8.6377 62.7562 8.76895 62.6062 8.86895L59.8875 10.8002L60.9562 14.2689C61.0187 14.4439 61.0156 14.6064 60.9469 14.7564C60.8781 14.9064 60.7812 15.0252 60.6562 15.1127C60.5312 15.2002 60.3875 15.2471 60.225 15.2533C60.0625 15.2596 59.9125 15.2064 59.775 15.0939L57 12.9752Z" fill="#0092E7"/>
</g>
</g>
<g id="star_rate_9">
<mask id="mask4_53_19" style="mask-type:alpha" maskUnits="userSpaceOnUse" x="64" y="0" width="18" height="18">
<rect id="Bounding box_5" x="64" width="18" height="18" fill="#D9D9D9"/>
</mask>
<g mask="url(#mask4_53_19)">
<path id="star_rate_10" d="M73 12.9752L70.225 15.0939C70.0875 15.2064 69.9375 15.2596 69.775 15.2533C69.6125 15.2471 69.4687 15.2002 69.3437 15.1127C69.2187 15.0252 69.1219 14.9064 69.0531 14.7564C68.9844 14.6064 68.9812 14.4439 69.0437 14.2689L70.1125 10.8002L67.3937 8.86895C67.2437 8.76895 67.15 8.6377 67.1125 8.4752C67.075 8.3127 67.0812 8.1627 67.1312 8.0252C67.1812 7.8877 67.2687 7.76582 67.3937 7.65957C67.5187 7.55332 67.6687 7.5002 67.8437 7.5002H71.2L72.2875 3.9002C72.35 3.7252 72.4469 3.59082 72.5781 3.49707C72.7094 3.40332 72.85 3.35645 73 3.35645C73.15 3.35645 73.2906 3.40332 73.4219 3.49707C73.5531 3.59082 73.65 3.7252 73.7125 3.9002L74.8 7.5002H78.1562C78.3312 7.5002 78.4812 7.55332 78.6062 7.65957C78.7312 7.76582 78.8187 7.8877 78.8687 8.0252C78.9187 8.1627 78.925 8.3127 78.8875 8.4752C78.85 8.6377 78.7562 8.76895 78.6062 8.86895L75.8875 10.8002L76.9562 14.2689C77.0187 14.4439 77.0156 14.6064 76.9469 14.7564C76.8781 14.9064 76.7812 15.0252 76.6562 15.1127C76.5312 15.2002 76.3875 15.2471 76.225 15.2533C76.0625 15.2596 75.9125 15.2064 75.775 15.0939L73 12.9752Z" fill="#0092E7"/>
</g>
</g>
</g>
</svg>
