<svg width="87" height="79" viewBox="0 0 87 79" fill="none" xmlns="http://www.w3.org/2000/svg">
<g id="hardware" clip-path="url(#clip0_51_599)">
<g id="Layer 2">
<g id="Layer 1">
<path id="Vector" d="M87 18.7625V56.9458C86.5278 57.4901 85.9263 57.6437 85.2021 57.6173C84.0013 57.5712 82.7958 57.6042 81.57 57.6042V77.3125C81.57 78.6862 81.2454 79 79.8221 79H1.7434C0.324618 79 0 78.6862 0 77.3081V1.68972C0 0.311611 0.322348 0 1.7434 0H79.8153C81.2409 0 81.5609 0.311611 81.5632 1.68753V18.1042C82.8367 18.1042 84.0217 18.1371 85.1953 18.091C85.9263 18.0647 86.5278 18.2139 87 18.7625ZM2.41534 76.6366H79.1433V57.6042H78.3647C76.9754 57.5932 76.7416 57.4132 76.5895 56.0878C75.6981 48.3253 74.8166 40.5606 73.9449 32.7938C73.8359 31.8019 73.761 30.7507 73.9744 29.7896C74.7417 26.3377 75.6406 22.9122 76.4919 19.4757C76.7711 18.3434 77.0844 18.1129 78.3238 18.0998C78.5962 18.0998 78.8664 18.0756 79.1161 18.0625V2.34806H2.41534V76.6366ZM78.8369 20.4369C77.9765 23.7768 77.1207 27.0663 76.2921 30.3623C76.1901 30.785 76.1625 31.2212 76.2104 31.6527C76.7961 37.0174 77.3924 42.3828 77.9992 47.7489C78.2777 50.2462 78.5599 52.7464 78.8459 55.2495H84.5688V20.4369H78.8369Z" fill="#00639C"/>
<path id="Vector_2" d="M9.29352 14.1542C9.08013 10.8362 10.3105 9.51735 13.7633 9.6556C13.7633 8.61982 13.7633 7.58843 13.7633 6.55485C13.7633 5.61343 14.2173 5.08896 14.9868 5.1109C15.7564 5.13285 16.1219 5.63537 16.1377 6.54387C16.1377 7.55771 16.1377 8.56935 16.1377 9.64901H18.1808V7.55551C18.1808 5.64854 18.4555 5.09335 19.3907 5.10871C20.326 5.12407 20.5598 5.65073 20.5598 7.59501V9.66876H22.6029C22.6029 8.64396 22.6029 7.61476 22.6029 6.58337C22.6029 5.6266 23.0342 5.10651 23.7947 5.10871C24.5551 5.1109 24.9705 5.63098 24.9705 6.58337C24.9705 7.59282 24.9705 8.60226 24.9705 9.6556H26.8411C26.8411 8.65054 26.8275 7.62135 26.8411 6.58337C26.8411 6.26298 26.8411 5.82629 27.0431 5.65732C27.3761 5.35573 27.8068 5.17504 28.2621 5.14601C28.8501 5.16576 29.1929 5.63318 29.2019 6.23007C29.2178 7.34923 29.2019 8.4684 29.2019 9.68412C30.5049 9.70607 31.7943 9.56123 32.8022 10.5619C33.8102 11.5626 33.5968 12.8661 33.6671 14.1542C34.8408 14.1542 35.9644 14.1542 37.0881 14.1542C38.0257 14.1542 38.5455 14.5624 38.5659 15.2712C38.5909 16.0195 38.0438 16.4584 37.0722 16.4584C35.9713 16.4584 34.868 16.4584 33.7057 16.4584V18.4334C34.8271 18.4334 35.9508 18.4334 37.0722 18.4334C38.0461 18.4334 38.5886 18.8723 38.5659 19.6162C38.5432 20.3601 38.0234 20.7266 37.0881 20.7332C35.9849 20.7332 34.8816 20.7332 33.7125 20.7332V22.7082C34.7568 22.7082 35.8214 22.7082 36.8906 22.7082C38.0257 22.7082 38.5818 23.1031 38.5682 23.8778C38.5546 24.6524 38.0075 25.0101 36.8498 25.0123C35.8101 25.0123 34.7704 25.0123 33.6898 25.0123V26.8227C34.8022 26.8227 35.9236 26.8227 37.0427 26.8227C38.0347 26.8227 38.5705 27.2375 38.5682 27.9748C38.5659 28.7122 38.0302 29.1181 37.0382 29.1225C35.9395 29.1225 34.8408 29.1225 33.6944 29.1225C33.5536 30.3733 33.8941 31.6681 32.9271 32.6929C31.9601 33.7177 30.6162 33.5465 29.2292 33.5707C29.2292 34.7249 29.2292 35.8638 29.2292 37.0028C29.2292 37.5799 29.0317 38.0254 28.4574 38.2492C27.6628 38.5564 26.8683 38.01 26.8683 37.0993C26.8388 35.9538 26.8683 34.8061 26.8683 33.6102H24.9705C24.9705 34.6723 24.9705 35.7058 24.9705 36.7416C24.9705 37.7774 24.5801 38.3106 23.806 38.326C23.0319 38.3414 22.5961 37.795 22.5938 36.7021C22.5938 35.6927 22.5938 34.681 22.5938 33.6145H20.5507C20.5507 34.7118 20.5507 35.809 20.5507 36.893C20.5507 37.8015 20.133 38.3041 19.4021 38.326C18.6711 38.348 18.1831 37.8213 18.1763 36.8821C18.1763 35.8134 18.1763 34.7469 18.1763 33.6211H16.1332C16.1332 34.703 16.1332 35.7914 16.1332 36.8777C16.1332 37.8213 15.6792 38.3458 14.9142 38.326C14.1492 38.3063 13.7655 37.7971 13.7587 36.8952C13.7587 35.8265 13.7587 34.7578 13.7587 33.575C12.5011 33.529 11.2004 33.7067 10.1902 32.6973C9.18002 31.6878 9.3707 30.4326 9.32757 29.1093C8.2334 29.1093 7.16874 29.1093 6.10409 29.1093C5.12115 29.1093 4.58088 28.6836 4.58996 27.9441C4.59904 27.2046 5.13477 26.814 6.1336 26.8096C7.17328 26.8096 8.21524 26.8096 9.29806 26.8096V25.0167C8.24475 25.0167 7.18236 25.0167 6.11998 25.0167C5.12796 25.0167 4.58996 24.602 4.58996 23.8668C4.58996 23.1317 5.12796 22.7213 6.11771 22.7169C7.15966 22.7169 8.20162 22.7169 9.29579 22.7169V20.7419C8.26291 20.7419 7.20052 20.7551 6.13814 20.7419C5.80898 20.7419 5.35724 20.7419 5.18244 20.5488C4.86851 20.2271 4.68063 19.8095 4.65125 19.3682C4.66941 18.7977 5.15293 18.4641 5.76812 18.4553C6.92358 18.4334 8.08131 18.4334 9.29125 18.4334V16.4584C8.20389 16.4584 7.13469 16.4584 6.06776 16.4584C5.13704 16.4584 4.61266 16.0458 4.5945 15.337C4.57634 14.6282 5.11661 14.1652 6.09274 14.1586C7.13696 14.1498 8.17211 14.1542 9.29352 14.1542ZM11.7497 12.8375C13.3388 12.8375 14.9278 12.7849 16.4964 12.8683C16.9958 12.8946 17.6882 13.1535 17.922 13.5266C18.4691 14.3934 19.1751 14.6019 20.1103 14.4878C20.2517 14.479 20.3935 14.479 20.5348 14.4878C21.5359 14.4878 22.0694 14.8872 22.083 15.6201C22.0966 16.353 21.5655 16.7766 20.5757 16.7853C19.9537 16.7853 19.3272 16.7546 18.7075 16.7963C18.3996 16.8309 18.0878 16.7818 17.8071 16.6547C17.5265 16.5276 17.288 16.3274 17.1184 16.0765C16.8324 15.7057 16.4079 15.2163 16.0106 15.1856C14.6123 15.0781 13.2003 15.1417 11.7815 15.1417V28.3084C12.9165 28.3084 13.9835 28.2557 15.0504 28.3259C15.3938 28.3711 15.7433 28.3165 16.0545 28.1692C16.3657 28.0219 16.6246 27.7885 16.7983 27.4986C17.0934 27.0817 17.6087 26.6208 18.0832 26.5528C19.0676 26.4405 20.0617 26.4324 21.0479 26.5287C21.688 26.5682 22.0626 27.0071 22.0649 27.6435C22.0862 27.922 21.9926 28.1974 21.8047 28.4096C21.6167 28.6217 21.3495 28.7534 21.0615 28.7758C20.6695 28.8379 20.2701 28.8431 19.8765 28.7911C19.1047 28.6858 18.5917 28.9733 18.2171 29.6141C17.7631 30.3821 17.0821 30.6652 16.1627 30.6279C14.7008 30.5687 13.2343 30.6125 11.7361 30.6125C11.7951 31.3389 12.29 31.2709 12.7327 31.2709H21.8129C24.6429 31.2709 27.4737 31.2709 30.3052 31.2709C30.7229 31.2709 31.2246 31.3521 31.2382 30.731C31.2586 29.8357 31.2382 28.9404 31.2382 27.9814C29.5947 27.9814 28.0419 28.0121 26.4915 27.9595C26.092 27.9463 25.5312 27.7751 25.3338 27.4877C24.6527 26.5023 23.781 26.1359 22.6097 26.3312C22.4408 26.3509 22.2701 26.3509 22.1012 26.3312C21.3725 26.2895 20.9412 25.9208 20.8958 25.2076C20.8527 24.5493 21.3612 24.0687 22.1375 24.038C22.7595 24.0138 23.386 24.0797 24.0035 24.0204C25.0205 23.9239 25.7583 24.2618 26.2736 25.1177C26.403 25.3371 26.6549 25.6333 26.8592 25.6399C28.3166 25.686 29.774 25.6641 31.2041 25.6641V18.7625C29.917 18.7625 28.6753 18.7955 27.4381 18.7494C26.8547 18.7252 26.5301 18.9469 26.1828 19.3704C25.8354 19.7939 25.3882 20.2789 24.9229 20.3491C23.9104 20.4633 22.8881 20.4699 21.8742 20.3689C21.2749 20.3294 20.923 19.8905 20.9026 19.298C20.8733 19.0197 20.959 18.7415 21.141 18.5241C21.323 18.3066 21.5866 18.1675 21.8742 18.1371C22.2651 18.0651 22.6657 18.0577 23.0592 18.1152C23.9853 18.2622 24.6482 17.9133 25.1022 17.1738C25.4722 16.5878 26.0102 16.4233 26.6912 16.4474C27.7945 16.4869 28.8977 16.4474 30.0033 16.4474H31.2541C31.2541 15.1878 31.2246 14.0642 31.2654 12.9363C31.2904 12.2121 30.9885 11.9795 30.2621 11.9883C27.715 12.0168 25.1658 11.9883 22.6188 11.9883C19.3347 11.9883 16.0507 11.9883 12.7667 11.9883C12.2378 12.0124 11.7316 12.03 11.7497 12.8375Z" fill="#00639C"/>
<path id="Vector_3" d="M21.604 39.6646C25.0751 39.6611 28.4691 40.6535 31.3563 42.516C34.2435 44.3786 36.4939 47.0275 37.8226 50.1274C39.1513 53.2272 39.4986 56.6385 38.8203 59.9292C38.142 63.22 36.4688 66.2421 34.0125 68.6129C31.5562 70.9837 28.4273 72.5965 25.0221 73.247C21.6169 73.8976 18.0886 73.5567 14.8841 72.2674C11.6795 70.9781 8.94278 68.7985 7.02054 66.0046C5.09831 63.2107 4.07701 59.9282 4.086 56.5728C4.08778 54.3506 4.54232 52.1506 5.42365 50.0982C6.30498 48.0459 7.59585 46.1815 9.22255 44.6114C10.8493 43.0413 12.7799 41.7964 14.9043 40.9476C17.0288 40.0988 19.3053 39.6628 21.604 39.6646ZM21.5813 41.9687C17.5668 41.9832 13.7217 43.5345 10.8874 46.283C8.05315 49.0314 6.46058 52.7533 6.45821 56.6342C6.45821 64.6637 13.2502 71.247 21.5359 71.2646C23.5258 71.2674 25.4968 70.8914 27.3363 70.1579C29.1759 69.4245 30.848 68.3479 32.2571 66.9898C33.6663 65.6317 34.7849 64.0185 35.5492 62.2424C36.3134 60.4664 36.7083 58.5622 36.7113 56.6386C36.7143 54.715 36.3253 52.8097 35.5665 51.0314C34.8078 49.2531 33.6942 47.6367 32.2892 46.2745C30.8843 44.9123 29.2155 43.8309 27.3783 43.0921C25.541 42.3533 23.5712 41.9716 21.5813 41.9687Z" fill="#00639C"/>
<path id="Vector_4" d="M66.6104 58.5082C66.6104 54.8611 66.6104 51.2139 66.6104 47.5667C66.6104 45.1945 68.2653 43.4587 70.5081 43.4521C72.8213 43.4521 74.5942 45.2384 74.5942 47.6018C74.5942 54.9503 74.5942 62.3002 74.5942 69.6516C74.6008 70.2635 74.4579 70.8682 74.1771 71.4167C73.8963 71.9651 73.4857 72.4417 72.9784 72.8078C72.4712 73.1739 71.8818 73.4191 71.2581 73.5235C70.6344 73.6278 69.994 73.5885 69.389 73.4085C67.7001 72.9389 66.624 71.5257 66.6195 69.6977C66.6013 65.9693 66.6104 62.2388 66.6104 58.5082ZM68.9894 58.5433C68.9894 62.2168 68.9894 65.8881 68.9894 69.5616C68.9894 70.6589 69.7204 71.3567 70.6965 71.2514C71.6727 71.146 72.2129 70.4811 72.2129 69.4058C72.2129 62.1715 72.2129 54.9349 72.2129 47.6962C72.2129 46.5792 71.4593 45.7388 70.4922 45.7629C69.5842 45.7826 68.9872 46.5375 68.9872 47.6896C68.9872 51.3002 68.9879 54.9181 68.9894 58.5433Z" fill="#00639C"/>
<path id="Vector_5" d="M42.9905 58.4863C42.9905 54.8392 42.9905 51.1935 42.9905 47.5492C42.9905 45.2626 44.7566 43.4412 46.9381 43.4522C49.2082 43.4654 50.972 45.256 50.972 47.5668C50.972 54.9401 50.9879 62.3135 50.972 69.689C50.9695 70.3758 50.7795 71.0498 50.4214 71.6429C50.0633 72.2361 49.5496 72.7274 48.9323 73.0673C48.3149 73.4072 47.6158 73.5836 46.9053 73.5788C46.1949 73.574 45.4983 73.3881 44.886 73.0399C43.583 72.2872 42.9927 71.1241 42.9927 69.6692L42.9905 58.4863ZM45.3695 58.5939C45.3695 62.2396 45.3695 65.8853 45.3695 69.531C45.3695 70.5843 45.9597 71.2405 46.8745 71.258C47.862 71.2778 48.5907 70.5602 48.593 69.52C48.593 62.2052 48.593 54.8867 48.593 47.5646C48.6054 47.2389 48.527 46.9161 48.366 46.6298C47.9596 46.0197 47.374 45.6313 46.5749 45.8046C45.8417 45.9648 45.3763 46.6276 45.374 47.4922C45.3665 51.192 45.365 54.8918 45.3695 58.5917V58.5939Z" fill="#00639C"/>
<path id="Vector_6" d="M62.6991 58.5084C62.6991 62.2653 62.7218 66.0222 62.6991 69.779C62.6786 72.4255 60.1906 74.1679 57.5937 73.3933C56.8255 73.1718 56.1505 72.7191 55.6671 72.1009C55.1837 71.4828 54.917 70.7316 54.9059 69.9568C54.8832 62.3333 54.8832 54.7098 54.9059 47.0863C54.9059 45.0542 56.7833 43.415 58.8558 43.4523C60.8717 43.4896 62.6786 45.2342 62.6945 47.2377C62.7195 50.9946 62.6991 54.7515 62.6991 58.5084ZM60.3223 58.5413C60.3223 54.8393 60.3223 51.1372 60.3223 47.4352C60.3223 46.4872 59.6413 45.774 58.815 45.763C57.9887 45.7521 57.3054 46.4675 57.2713 47.4045C57.2713 47.6239 57.2713 47.8434 57.2713 48.0628V68.9583C57.2713 69.0944 57.2713 69.2326 57.2713 69.3687C57.2713 70.5646 57.8252 71.2471 58.7832 71.2581C59.7412 71.2691 60.3268 70.5778 60.3291 69.4016C60.3276 65.7808 60.3253 62.1607 60.3223 58.5413Z" fill="#00639C"/>
<path id="Vector_7" d="M54.0274 35.2165C54.0274 36.1843 54.041 37.0313 54.0274 37.8784C54.0115 38.6925 53.5348 39.1797 52.8152 39.1643C52.1341 39.1489 51.6801 38.6684 51.6597 37.9047C51.6393 37.0554 51.6597 36.2062 51.6597 35.2889H49.2761C49.2761 36.1009 49.2761 36.9369 49.2761 37.7752C49.2761 38.6662 48.8221 39.1687 48.0821 39.1643C47.342 39.1599 46.913 38.653 46.9039 37.7599C46.9039 36.9435 46.9039 36.125 46.9039 35.346C46.7859 35.2845 46.7405 35.2384 46.6928 35.2363C44.5953 35.1507 44.5249 35.0804 44.5249 33.0418C44.5249 31.7537 44.5249 30.4655 44.5249 29.1774C44.5249 27.8015 44.8336 27.503 46.266 27.4877C46.4363 27.4877 46.6043 27.4877 46.9039 27.4877C46.9039 26.6274 46.9039 25.7892 46.9039 24.9531C46.9039 24.0578 47.342 23.5508 48.0775 23.5443C48.813 23.5377 49.2671 24.0424 49.2761 24.9289C49.2875 25.7453 49.2761 26.5638 49.2761 27.435H51.6574C51.6574 26.5748 51.6461 25.7321 51.6574 24.8916C51.6688 24.0512 52.1114 23.575 52.8083 23.5443C53.5507 23.5245 54.0183 24.0358 54.0296 24.907C54.0296 25.7277 54.0296 26.5463 54.0296 27.4899C54.4519 27.4899 54.8355 27.4723 55.2146 27.4899C55.9456 27.5359 56.3882 27.9288 56.3973 28.6354C56.4215 30.4436 56.4215 32.2518 56.3973 34.06C56.3973 34.7688 55.9433 35.1573 55.2214 35.2121C54.865 35.2363 54.4995 35.2165 54.0274 35.2165ZM53.9593 32.886V29.8445H46.9539V32.897L53.9593 32.886Z" fill="#00639C"/>
<path id="Vector_8" d="M63.4755 35.2625C61.1714 35.0957 61.1714 35.0957 61.1714 32.8925C61.1714 31.6307 61.1714 30.3711 61.1714 29.1093C61.1714 27.8475 61.5096 27.5029 62.8104 27.4854C62.9806 27.4854 63.1486 27.4854 63.3189 27.47C63.3977 27.4482 63.4739 27.418 63.5459 27.3801C63.5459 26.5703 63.5459 25.7276 63.5459 24.885C63.5459 24.0423 63.9999 23.5683 64.7013 23.542C65.4028 23.5156 65.9067 24.0357 65.9181 24.9091C65.9294 25.7298 65.9181 26.5484 65.9181 27.4261H68.2971C68.2971 26.5857 68.2971 25.7452 68.2971 24.9047C68.2971 24.0642 68.7738 23.5222 69.5161 23.542C70.2244 23.5617 70.6512 24.0533 70.6693 24.8872C70.6875 25.7211 70.6693 26.5725 70.6693 27.402C73.0483 27.707 73.0483 27.707 73.0483 30.0178C73.0483 31.1962 73.0483 32.3746 73.0483 33.553C73.0483 34.8872 72.726 35.2054 71.3685 35.2208H70.6693C70.6693 36.0986 70.6693 36.9391 70.6693 37.7773C70.658 38.6551 70.2153 39.1708 69.4707 39.1642C68.7261 39.1576 68.3062 38.6485 68.2948 37.7554C68.2948 36.9412 68.2948 36.1249 68.2948 35.2647H65.9294C65.9294 36.0569 65.9294 36.8666 65.9294 37.6786C65.9294 38.6419 65.5072 39.1598 64.749 39.1664C63.9908 39.173 63.5618 38.6485 63.5527 37.6961C63.5527 36.9566 63.5527 36.2171 63.5391 35.4754C63.5259 35.4024 63.5046 35.331 63.4755 35.2625ZM70.6489 29.8444H63.6117V32.8727H70.6489V29.8444Z" fill="#00639C"/>
<path id="Vector_9" d="M45.3694 18.5671H72.2174C72.2174 17.3975 72.2174 16.2564 72.2174 15.1131C72.2174 14.1716 72.6714 13.645 73.4387 13.6669C74.206 13.6889 74.5851 14.1914 74.5919 15.0977C74.5919 16.3595 74.6055 17.6191 74.5919 18.8809C74.5783 20.1844 73.8337 20.8976 72.4648 20.8998C63.3483 20.8998 54.2317 20.8998 45.1152 20.8998C43.7531 20.8998 43.0085 20.18 42.9927 18.8765C42.9768 17.573 42.9927 16.2981 42.9927 15.0099C42.9927 14.176 43.4467 13.6823 44.1481 13.6669C44.8496 13.6516 45.3558 14.1607 45.3649 15.0363C45.3785 16.1839 45.3694 17.336 45.3694 18.5671Z" fill="#00639C"/>
<path id="Vector_10" d="M72.2174 9.8179C72.2174 8.66143 72.2174 7.5664 72.2174 6.47356C72.2174 5.59579 72.6964 5.08887 73.4387 5.10862C74.181 5.12837 74.5737 5.61993 74.5896 6.45601C74.6032 7.71781 74.6101 8.97962 74.5896 10.2414C74.5692 11.444 73.8133 12.1725 72.5466 12.1747C63.3725 12.1747 54.1992 12.1747 45.0267 12.1747C43.7713 12.1747 43.0108 11.4374 42.9836 10.237C42.9632 8.97523 42.97 7.71343 42.9836 6.45162C42.9836 5.61773 43.4376 5.13495 44.1391 5.10862C44.8405 5.08229 45.3467 5.60237 45.3558 6.47795C45.3672 7.57518 45.3558 8.6724 45.3558 9.8179H72.2174Z" fill="#00639C"/>
<path id="Vector_11" d="M42.307 38.3193C42.307 40.8342 40.2345 42.7916 37.5604 42.7894C36.9572 42.7911 36.3596 42.6776 35.8019 42.4554C35.2442 42.2332 34.7374 41.9067 34.3107 41.4946C33.884 41.0825 33.5457 40.5929 33.3152 40.054C33.0848 39.5151 32.9668 38.9375 32.968 38.3544C32.968 35.765 34.977 33.7461 37.5672 33.7461C38.192 33.7351 38.8127 33.8459 39.3923 34.0717C39.9719 34.2975 40.4985 34.6338 40.9408 35.0606C41.3831 35.4873 41.732 35.9958 41.9668 36.5556C42.2015 37.1155 42.3172 37.7153 42.307 38.3193ZM37.5899 40.4809C38.1895 40.4905 38.7692 40.2734 39.2056 39.8758C39.642 39.4781 39.9004 38.9314 39.9258 38.3522C39.9315 38.0514 39.875 37.7524 39.7597 37.4729C39.6443 37.1934 39.4724 36.939 39.254 36.7246C39.0356 36.5102 38.7751 36.3401 38.4877 36.2243C38.2004 36.1085 37.8921 36.0493 37.5808 36.0503C36.3436 36.0503 35.3266 37.1036 35.3493 38.361C35.3658 38.9262 35.6086 39.4631 36.0266 39.8585C36.4445 40.254 37.005 40.4771 37.5899 40.4809Z" fill="#00639C"/>
<path id="Vector_12" d="M15.9381 54.126C14.9257 53.2482 13.8247 52.9586 12.6761 52.8401C11.9958 52.8007 11.3138 52.7956 10.633 52.8247C9.41172 52.8247 8.91685 52.1225 9.41172 51.0428C10.4131 48.7815 12.1233 46.8811 14.3014 45.6094C14.9643 45.221 15.5477 45.2232 16.181 45.6752C17.9517 46.9392 19.5634 48.3393 20.5827 50.2835C20.6386 50.3639 20.7041 50.4375 20.7779 50.503L21.039 50.4393C20.9118 49.6296 20.8982 48.7803 20.6258 48.0255C20.3148 47.1587 19.7995 46.3533 19.3228 45.5501C18.8461 44.747 18.9868 44.0711 19.8835 43.8823C22.7529 43.2767 25.5291 43.5356 28.0194 45.1551C28.3554 45.3746 28.5324 46.068 28.5006 46.5245C28.3508 48.7869 27.8787 50.9792 26.6506 53.0595C26.9979 52.8818 27.4314 52.7786 27.6789 52.5131C28.5597 51.5651 29.47 50.6215 30.2009 49.5638C31.0726 48.302 31.8649 48.223 32.7615 49.4935C34.1236 51.4137 34.9408 53.505 35.0112 55.8574C35.0293 56.5158 34.8114 56.9152 34.1849 57.2224C32.0442 58.2691 29.8468 59.0811 27.1659 58.9253C28.062 59.6925 29.1934 60.1549 30.3871 60.2419C31.036 60.2866 31.6872 60.2939 32.337 60.2639C33.6151 60.2639 34.1985 61.1285 33.6423 62.2389C32.5368 64.4553 31.0772 66.3622 28.7731 67.5604C28.1715 67.872 27.6902 67.8852 27.1295 67.5121C25.2454 66.2613 23.4974 64.8963 22.4214 62.8709C22.3896 62.8116 22.3011 62.7831 22.0673 62.6229C22.1059 63.2812 22.0242 63.8452 22.1922 64.3236C22.5164 65.3128 22.9414 66.2684 23.4611 67.1764C24.2897 68.5523 23.9446 69.2874 22.3261 69.5222C19.9198 69.869 17.7315 69.3028 15.609 68.2758C15.2803 68.1477 15.0042 67.9187 14.8234 67.6241C14.6425 67.3295 14.5668 66.9856 14.6079 66.6453C14.6987 64.5277 15.1527 62.5198 16.3354 60.705C16.4194 60.5755 16.4761 60.4307 16.5465 60.2946L16.4012 60.1103C15.9336 60.4065 15.3525 60.6172 15.0165 61.0188C14.2807 61.8758 13.6266 62.7954 13.062 63.7662C12.4127 64.9095 11.4729 65.0675 10.608 64.0449C8.956 62.1562 8.07731 59.7477 8.13822 57.275C8.13822 56.6167 8.36523 56.1998 8.96225 55.886C11.0053 54.7887 13.121 54.0273 15.5068 54.227C15.6538 54.2078 15.7984 54.174 15.9381 54.126ZM17.6747 56.5882C17.6588 58.6663 19.3977 60.4658 21.5111 60.378C23.6246 60.2902 25.2318 58.9362 25.3044 56.6255C25.3226 56.1377 25.2397 55.6513 25.0606 55.195C24.8814 54.7386 24.6097 54.3215 24.2613 53.9682C23.9129 53.6148 23.495 53.3324 23.032 53.1376C22.5691 52.9427 22.0705 52.8393 21.5656 52.8335C21.0541 52.8294 20.5468 52.9237 20.0732 53.1108C19.5997 53.298 19.1694 53.5743 18.8074 53.9237C18.4453 54.2731 18.1587 54.6886 17.9643 55.146C17.7698 55.6034 17.6714 56.0937 17.6747 56.5882ZM24.7868 51.35C25.679 49.9829 25.9014 48.4973 26.1148 47.0116C26.1352 46.8646 25.8696 46.5727 25.688 46.5245C24.6166 46.2436 23.5292 46.0132 22.3057 45.7345C22.653 46.7395 22.9867 47.49 23.166 48.28C23.3453 49.07 23.3385 49.8929 23.418 50.7597L24.7868 51.35ZM31.6311 52.0084C30.2554 53.1956 28.991 54.2818 27.7266 55.3703L27.5608 55.232L27.7606 56.5684C29.4959 56.5743 31.2048 56.1577 32.7298 55.3571C32.3461 54.2028 31.9784 53.0793 31.6311 52.0215V52.0084ZM11.3208 61.1219C12.5013 60.1168 13.3934 59.114 14.5103 58.4886C15.4637 57.9509 15.466 57.4067 15.1913 56.575C13.6318 56.3885 12.2107 56.7945 10.8668 57.4682C10.7641 57.5453 10.6826 57.6457 10.6296 57.7605C10.5765 57.8754 10.5535 58.001 10.5626 58.1265C10.7783 59.1162 11.0575 60.1015 11.3208 61.1219ZM12.4854 50.323C13.8701 50.7619 15.1754 50.9814 16.3014 51.5563C17.2094 52.015 17.7724 51.9513 18.4216 51.203C17.6793 49.7525 16.4693 48.697 15.0506 47.6919L12.4854 50.323ZM30.6844 62.7612C29.2747 62.3223 27.9604 62.0019 26.73 61.5059C25.629 61.067 25.6086 60.9924 24.6438 62.1313L28.0353 65.5393L30.6844 62.7612ZM18.1741 61.7736C17.8109 63.0047 17.5136 64.1502 17.1299 65.2694C16.8053 66.213 17.2366 66.6387 18.1015 66.8406C18.9187 67.0337 19.7428 67.2049 20.4737 67.3651L19.4772 62.3442L18.1741 61.7736Z" fill="#00639C"/>
</g>
</g>
</g>
<defs>
<clipPath id="clip0_51_599">
<rect width="87" height="79" fill="white"/>
</clipPath>
</defs>
</svg>
