<svg width="80" height="80" viewBox="0 0 80 80" fill="none" xmlns="http://www.w3.org/2000/svg">
<g id="Layer 3">
<g id="Layer 1">
<path id="Vector" d="M80 42.1886V45.468C79.9366 45.6906 79.8845 45.9164 79.8438 46.1443C78.9646 53.11 73.0562 59.0027 66.0792 59.8252C65.4833 59.8941 65.3083 60.0694 65.3104 60.6727C65.3354 65.4111 65.3271 70.1495 65.3229 74.89C65.3229 78.09 63.4187 80 60.2333 80H19.7687C16.5875 80 14.6792 78.0858 14.6771 74.89C14.6771 70.1586 14.6771 65.4194 14.6771 60.6727C14.6771 60.226 14.6896 59.917 14.075 59.8377C10.9049 59.447 7.92386 58.1152 5.51517 56.0135C3.10647 53.9118 1.38022 51.1363 0.558333 48.0438C0.33125 47.1963 0.185417 46.328 0 45.468V42.1886C0.0594832 42.0461 0.106873 41.8987 0.141667 41.7482C0.94375 36.4044 3.68333 32.382 8.3875 29.7226C9.0125 29.372 9.23958 29.038 9.23125 28.3095C9.14375 21.4064 14.6604 16.2025 21.5417 16.7014C22.4875 16.7682 23.4167 17.0061 24.3521 17.1627C24.39 17.1202 24.4216 17.0723 24.4458 17.0207C24.4833 16.8976 24.5063 16.7682 24.5396 16.6429C26.6667 8.6377 31.6667 3.33986 39.5646 0.851663C40.8667 0.434181 42.2479 0.277626 43.5938 0H47.5C48.5938 0.208741 49.6979 0.373646 50.7792 0.626223C60.8979 3.07684 67.8979 12.7332 67.0542 23.1076C66.9229 24.7024 66.5854 26.2805 66.3375 27.9087C66.3042 27.8836 66.3229 27.9087 66.3375 27.9087L66.7146 27.9922C73.2438 29.4053 77.5 33.2963 79.4354 39.6942C79.6896 40.5083 79.8187 41.3558 80 42.1886ZM14.675 57.2431V56.2933C14.675 51.1374 14.675 45.9794 14.675 40.8235C14.675 38.0932 16.55 36.0538 19.2708 36.0224C24.6604 35.9494 30.0521 35.964 35.4417 36.0224C37.7937 36.0454 39.5729 37.6569 39.9333 39.9217C40.0015 40.5692 40.0217 41.2209 39.9937 41.8714C39.9937 43.6665 40.35 44.0193 42.1333 44.0193C47.3417 44.0193 52.55 44.0318 57.7583 44.0193C59.6042 44.0193 61.1333 44.6664 61.9792 46.3155C62.4208 47.1734 62.4292 48.2526 62.6667 49.2211C62.7375 49.5092 62.8562 49.8724 63.0833 50.0206C64.575 51.0434 65.3396 52.4253 65.3292 54.2372C65.3292 55.2203 65.3292 56.2035 65.3292 57.2702C65.8583 57.1867 66.2937 57.1366 66.7229 57.0489C73.0583 55.7464 77.5417 49.9267 77.3333 43.272C77.1375 36.9179 72.2604 31.5136 65.9292 30.591C65.3896 30.5138 65.175 30.6432 64.9208 31.1149C64.2562 32.3465 63.5333 33.553 62.7646 34.7262C62.6725 34.8784 62.5494 35.0094 62.4033 35.1107C62.2573 35.2119 62.0915 35.2812 61.9169 35.3139C61.7423 35.3466 61.5628 35.342 61.3901 35.3005C61.2173 35.2589 61.0553 35.1813 60.9146 35.0727C60.3083 34.6447 60.1812 33.9142 60.6063 33.2128C60.7812 32.9226 60.9917 32.6554 61.175 32.3778C64.3812 27.4536 65.3167 22.1286 63.675 16.4822C61.0417 7.36438 52.5167 1.83066 43.0812 2.94742C34.9 3.91807 28.0187 10.5748 26.8833 18.7262C26.6583 20.3356 26.75 21.9909 26.7146 23.6253C26.6958 24.4603 26.1938 25.0865 25.4396 25.1199C25.2635 25.126 25.0879 25.097 24.9231 25.0345C24.7583 24.972 24.6075 24.8773 24.4796 24.7559C24.3516 24.6345 24.249 24.4888 24.1778 24.3273C24.1066 24.1659 24.0681 23.9918 24.0646 23.8153C24 22.7507 23.95 21.684 23.9833 20.6194C24 20.1435 23.8937 19.9389 23.4417 19.7845C17.4812 17.6219 10.9417 23.0262 11.9458 29.2885C12.175 30.7058 12.0271 30.973 10.6958 31.5616C1.58333 35.5778 -0.15625 47.8017 7.48333 54.1871C9.51655 55.9117 12.0243 56.9773 14.675 57.2431ZM23.8125 77.3385H60.1208C61.9521 77.3385 62.6604 76.6267 62.6604 74.7898C62.6604 68.0725 62.6604 61.3559 62.6604 54.6401C62.6604 52.6654 62.0125 52.012 60.0583 52.012H26.6333C24.6354 52.012 24.0125 52.6382 24.0104 54.615C24.0104 60.7332 24.0229 66.8493 24.0104 72.9675C23.9958 74.4099 23.8792 75.8523 23.8125 77.3385ZM59.9438 49.3464C60.075 47.9666 59.6896 47.1379 58.7479 46.8206C58.3476 46.7121 57.933 46.6663 57.5187 46.6849C52.2854 46.6766 47.0521 46.6766 41.8187 46.6849C38.9562 46.6849 37.3062 45.015 37.3375 42.1678C37.3375 41.8296 37.3375 41.4915 37.3375 41.1533C37.3375 39.3393 36.6688 38.6714 34.8375 38.6693C29.8639 38.6693 24.8903 38.6693 19.9167 38.6693C18.025 38.6693 17.3479 39.3602 17.3458 41.2702C17.3458 52.4142 17.3458 63.5589 17.3458 74.7042C17.3354 74.991 17.3416 75.2782 17.3646 75.5642C17.4246 76.0472 17.6562 76.4923 18.0169 76.8182C18.3777 77.144 18.8436 77.3287 19.3292 77.3385C19.8006 77.3419 20.2574 77.1749 20.6159 76.8682C20.9744 76.5615 21.2106 76.1356 21.2812 75.6686C21.3295 75.3075 21.3497 74.9432 21.3417 74.579C21.3417 67.9396 21.3417 61.2996 21.3417 54.6588C21.3224 54.0608 21.3727 53.4625 21.4917 52.8762C22.0229 50.6865 23.8562 49.3652 26.3083 49.3631C37.1931 49.3631 48.0778 49.3631 58.9625 49.3631L59.9438 49.3464Z" fill="#00639C"/>
<path id="Vector_2" d="M37.4479 21.1579C37.9229 20.5317 38.3646 19.9347 38.825 19.3523C39.4 18.6259 40.1708 18.4756 40.7958 18.9473C41.4208 19.4191 41.4938 20.2144 40.9458 20.9575C39.6958 22.6525 38.4306 24.3384 37.15 26.0153C36.475 26.8941 35.5354 26.8983 34.8583 26.0153C33.5563 24.3245 32.2813 22.6128 31.0146 20.897C30.4938 20.1914 30.5833 19.4191 31.1833 18.9536C31.7833 18.4881 32.5917 18.6133 33.1583 19.3272C33.625 19.9159 34.0667 20.5212 34.575 21.2059C34.7229 20.3313 34.8104 19.536 34.9917 18.7824C36.1938 13.7726 41.1 10.2032 46.0688 10.6958C51.6938 11.2531 55.7792 15.4822 55.9729 20.9241C56.0766 23.5008 55.2434 26.0275 53.6279 28.035C52.0125 30.0425 49.7247 31.3943 47.1896 31.8392C46.6252 31.9369 46.054 31.9899 45.4813 31.9978C44.6104 32.0083 44.0417 31.4801 44.0229 30.7099C44.0042 29.9396 44.5042 29.4011 45.4021 29.3489C48.6646 29.161 51.1583 27.7103 52.5417 24.7253C53.9625 21.661 53.5479 18.7156 51.3708 16.1189C50.3622 14.907 49.01 14.0306 47.4933 13.6056C45.9766 13.1807 44.3668 13.2273 42.8771 13.7392C39.6417 14.8539 37.8417 17.1876 37.3667 20.5588C37.3518 20.6884 37.3483 20.819 37.3563 20.9492C37.3563 20.9909 37.3917 21.0327 37.4479 21.1579Z" fill="#00639C"/>
</g>
</g>
</svg>
