<svg width="82" height="80" viewBox="0 0 82 80" fill="none" xmlns="http://www.w3.org/2000/svg">
<g id="Layer 2">
<g id="Layer 1">
<path id="Vector" d="M23.701 67.0911H7.89052C3.69919 67.0911 0.980957 64.3707 0.980957 60.1794C0.980957 46.7345 0.980957 33.291 0.980957 19.8489C0.980957 15.5866 3.67124 12.8834 7.91418 12.8813C16.4345 12.8813 24.9562 12.8813 33.4793 12.8813H34.4922C34.5073 12.5694 34.5309 12.3114 34.5331 12.0533C34.546 10.6899 34.9395 10.2878 36.3288 10.3028C38.857 10.3539 41.3789 10.0307 43.8125 9.34368C48.6847 7.9685 53.0088 5.11277 56.1865 1.17177C56.3241 1.00403 56.4532 0.834145 56.5929 0.670707C57.3542 -0.223902 58.2101 -0.232504 58.9585 0.698664C60.4986 2.67265 62.3227 4.40758 64.3713 5.84697C68.469 8.71959 73.3454 10.274 78.3496 10.3028C78.7797 10.3028 79.2098 10.2899 79.6399 10.3028C80.4614 10.3394 80.9517 10.7996 80.9904 11.6039C81.5022 21.9951 79.5926 31.7648 73.5776 40.4851C73.3709 40.8204 73.2635 41.2074 73.2679 41.6012C73.2486 47.7839 73.2572 53.9688 73.255 60.1515C73.255 64.3965 70.5497 67.0847 66.2874 67.0868H50.5285C51.0812 68.7578 51.6038 70.3577 52.1608 71.9405C52.2167 72.0996 52.5694 72.2136 52.7952 72.2373C53.5156 72.3125 54.2553 72.2502 54.9586 72.39C56.1014 72.6187 57.131 73.2331 57.8749 74.1304C58.6187 75.0278 59.0317 76.1534 59.0445 77.3189C59.109 79.8178 58.9413 79.9941 56.4747 79.9941H17.5398C15.3678 79.9941 15.1743 79.792 15.1872 77.5856C15.2087 74.8501 16.9377 72.7512 19.5699 72.3168C20.1004 72.2256 20.641 72.2082 21.1763 72.2652C21.8559 72.3427 22.1075 72.0502 22.2881 71.4416C22.701 70.0094 23.2042 68.5965 23.701 67.0911ZM65.4702 49.543C63.2487 50.9624 61.0509 52.3537 58.8682 53.7688C58.1327 54.244 57.479 54.2225 56.6983 53.7903C48.9565 49.4893 43.0785 43.3962 39.0642 35.511C38.8147 35.0185 38.5588 34.8078 37.9889 34.8164C35.3825 34.8508 32.774 34.8314 30.1676 34.8314H29.4235C29.4043 34.926 29.3899 35.0214 29.3805 35.1175C29.3805 36.9991 29.3805 38.8808 29.3633 40.7625C29.3633 41.2679 29.4687 41.5539 29.9633 41.8163C30.7175 42.2184 31.3122 42.8654 31.6496 43.6507C31.9869 44.436 32.0467 45.3128 31.8192 46.1366C31.605 46.9685 31.1193 47.7051 30.4391 48.2298C29.7589 48.7544 28.9231 49.037 28.0641 49.0328C27.2051 49.0286 26.3721 48.7378 25.6971 48.2066C25.022 47.6753 24.5436 46.934 24.3376 46.1001C24.1182 45.2743 24.1865 44.3985 24.5313 43.6168C24.876 42.835 25.4767 42.194 26.2343 41.7991C26.6967 41.5561 26.8085 41.2894 26.8042 40.8098C26.7805 38.4959 26.7891 36.1841 26.8042 33.8723C26.8042 32.7089 27.2536 32.2573 28.4085 32.253C31.1762 32.253 33.946 32.253 36.7137 32.253H37.5395C37.0707 30.9111 36.6427 29.6724 36.2126 28.4423C36.1331 28.4155 36.0509 28.3975 35.9675 28.3885C32.9826 28.3885 29.9977 28.3735 27.0149 28.4036C26.8734 28.4302 26.7391 28.4867 26.6212 28.5694C26.5032 28.6521 26.4043 28.7591 26.3311 28.8831C25.3827 30.5068 23.6967 31.281 21.9634 30.838C21.1298 30.6316 20.3888 30.1531 19.8576 29.4783C19.3265 28.8034 19.0356 27.9708 19.0309 27.112C19.0262 26.2532 19.308 25.4174 19.8317 24.7368C20.3555 24.0562 21.0912 23.5697 21.9225 23.3542C22.7609 23.1219 23.6538 23.1879 24.4488 23.5409C25.2439 23.8939 25.8917 24.512 26.2816 25.2897C26.5139 25.7198 26.7741 25.823 27.2149 25.8187C29.23 25.8015 31.2471 25.8187 33.2621 25.8187H35.5159C35.2363 24.051 34.9718 22.3779 34.7073 20.7091H8.78728V56.7192H65.4702V49.543ZM37.1352 12.8985C37.0879 16.1242 37.0449 19.2898 37.5653 22.4295C39.6656 34.9813 46.1802 44.523 57.1091 51.0548C57.5779 51.3365 57.9306 51.3623 58.4144 51.0785C63.8092 47.952 68.4025 43.6133 71.8314 38.4056C76.8937 30.724 78.8076 22.2209 78.399 13.1135C78.377 13.0373 78.3437 12.9648 78.3001 12.8985C74.4188 12.8562 70.5901 11.9959 67.0637 10.3738C63.4929 8.71933 60.3184 6.31845 57.7542 3.33303C55.2002 6.3124 52.0366 8.70897 48.4769 10.3609C44.9181 11.9986 41.0526 12.8635 37.1352 12.8985ZM34.5288 15.4619H7.75719C5.14648 15.464 3.56156 17.064 3.56156 19.7027C3.56156 33.2307 3.56156 46.7545 3.56156 60.274C3.56156 62.9062 5.15078 64.5105 7.76579 64.5105H66.4745C69.0551 64.5105 70.6594 62.9127 70.6615 60.345C70.6615 55.2641 70.6615 50.1824 70.6615 45.1001C70.6615 44.8743 70.6314 44.6506 70.6078 44.3109C69.8615 45.1087 69.1712 45.7839 68.5605 46.5237C68.2949 46.8345 68.1345 47.2215 68.1024 47.6291C68.068 50.9366 68.0831 54.2419 68.0809 57.5493C68.0809 58.9622 67.6874 59.3493 66.2487 59.3493H7.94643C6.52925 59.3493 6.14431 58.9579 6.14431 57.5214C6.14431 44.9926 6.14431 32.4637 6.14431 19.9349C6.14431 18.4037 6.5013 18.0489 8.04751 18.0489H34.5288V15.4619ZM24.729 72.2072H49.4963C48.9974 70.7018 48.4899 69.2567 48.0576 67.7943C47.8877 67.218 47.6038 67.0739 47.0318 67.0761C42.3824 67.0997 37.7309 67.089 33.0815 67.089C31.0643 67.089 29.0493 67.0782 27.0321 67.104C26.7934 67.104 26.4042 67.2567 26.3418 67.4288C25.7784 68.99 25.2816 70.5706 24.729 72.2072ZM17.8 77.3684H56.4317C56.3435 75.7533 55.3026 74.8308 53.5908 74.8308H20.6365H20.2323C19.1398 74.8329 17.7549 75.8372 17.8 77.3727V77.3684ZM22.929 28.3584C23.1857 28.3583 23.4366 28.2816 23.6495 28.1382C23.8624 27.9947 24.0277 27.791 24.1242 27.5531C24.2207 27.3152 24.244 27.0539 24.1912 26.8026C24.1383 26.5514 24.0118 26.3216 23.8276 26.1427C23.6435 25.9638 23.4102 25.8439 23.1575 25.7983C22.9049 25.7527 22.6444 25.7836 22.4093 25.8869C22.1743 25.9901 21.9754 26.1612 21.8381 26.3781C21.7009 26.5951 21.6314 26.8481 21.6387 27.1047C21.6471 27.4413 21.7867 27.7612 22.0278 27.9963C22.2689 28.2313 22.5923 28.3628 22.929 28.3627V28.3584ZM29.3654 45.1323C29.3623 44.8759 29.2828 44.6263 29.1371 44.4152C28.9914 44.2042 28.7862 44.0413 28.5475 43.9474C28.3089 43.8536 28.0477 43.8329 27.7973 43.8882C27.5469 43.9434 27.3186 44.072 27.1416 44.2576C26.9646 44.4432 26.8469 44.6772 26.8035 44.93C26.7601 45.1827 26.7931 45.4427 26.8981 45.6766C27.0031 45.9106 27.1755 46.1079 27.3932 46.2435C27.6109 46.379 27.864 46.4467 28.1203 46.4377C28.4584 46.4265 28.7785 46.2829 29.0118 46.038C29.2451 45.793 29.3728 45.4663 29.3676 45.128L29.3654 45.1323Z" fill="#00639C"/>
<path id="Vector_2" d="M44.0342 24.2164L45.9696 22.2638C46.1653 22.5283 46.3997 22.8251 46.6148 23.124C47.4277 24.3111 48.5502 24.6766 49.9459 24.5068C50.447 24.4465 50.8061 24.3584 51.1738 23.9584C51.7072 23.3928 51.7244 22.9197 51.533 22.1885C50.9007 19.7778 51.619 17.6854 53.3609 15.8961C52.5007 14.3908 51.2341 13.4274 49.6276 12.7865L50.4255 10.3887C52.2147 10.9478 53.6899 11.9263 54.7265 13.3994C55.3716 14.2983 55.9351 14.5435 57.0017 14.2596C57.7114 14.0725 58.5544 14.2273 59.3006 14.3929C59.8318 14.5112 60.0511 14.3929 60.3328 13.9628C61.4834 12.2682 63.0403 11.0919 65.0897 10.3564L65.8983 12.7693C64.3177 13.4274 63.0102 14.3607 62.1694 15.8875C63.4726 17.2144 64.2403 18.7778 64.1973 20.6509C64.1574 21.3191 64.0486 21.9814 63.8726 22.6272C63.7242 23.2724 64.4919 24.4444 65.1629 24.4723C65.8342 24.5085 66.507 24.505 67.1779 24.4616C67.4583 24.4219 67.7184 24.2929 67.9198 24.0939C68.5176 23.5154 69.0725 22.8982 69.6832 22.253L71.4187 24.1734C70.6337 24.982 69.823 25.9196 68.8918 26.7196C68.5628 27.0035 67.9499 26.9884 67.4574 27.0508C67.037 27.0758 66.6155 27.0758 66.1951 27.0508L66.7585 29.5841H70.6101V32.1969H66.7865L66.18 34.8657C68.9434 34.0485 69.9714 36.3238 71.5778 37.7302L69.5176 39.5882C69.109 39.1044 68.6015 38.5259 68.1198 37.928C67.9755 37.7182 67.7739 37.5543 67.539 37.4559C67.3041 37.3575 67.0459 37.3288 66.7951 37.3732C66.6611 37.3936 66.5248 37.3936 66.3908 37.3732C65.3629 37.2291 64.6704 37.5883 63.9629 38.4291C60.6145 42.3624 54.391 42.1366 51.2212 38.0334C50.8577 37.5646 50.5029 37.4098 49.9115 37.3452C48.5309 37.1926 47.4556 37.5711 46.6492 38.7108C46.4341 39.0162 46.1804 39.2979 45.9073 39.6377L44.146 37.6872C44.9288 36.8743 45.7481 35.9087 46.703 35.1066C47.047 34.812 47.7072 34.8722 48.2298 34.8098C48.6002 34.7902 48.9713 34.7902 49.3416 34.8098C49.1481 33.9496 48.9653 33.126 48.7739 32.2572H44.9223V29.6766H48.7438C48.9588 28.7755 49.1373 27.9562 49.3588 26.9712C46.5718 27.8357 45.5761 25.5175 44.0342 24.2164ZM56.449 28.4035H51.733C50.2556 32.4894 52.7652 37.8399 56.4447 38.4506L56.449 28.4035ZM59.0791 28.4035V38.4442C62.7349 37.8764 65.251 32.5389 63.7908 28.4035H59.0791ZM61.4253 21.5003C61.9113 20.0445 61.2984 18.38 60.0103 17.4596C59.3268 16.974 58.5043 16.7234 57.6662 16.7455C56.8281 16.7676 56.0199 17.0612 55.363 17.5821C54.1415 18.5585 53.5996 20.1821 54.1093 21.481C56.5243 20.3455 58.9608 20.324 61.4253 21.5003ZM62.5414 25.7626C61.107 23.8573 59.3393 23.0272 57.1501 23.2466C55.4469 23.4164 54.0598 24.2143 53.0319 25.7626H62.5414Z" fill="#00639C"/>
</g>
</g>
</svg>
