<svg width="80" height="80" viewBox="0 0 80 80" fill="none" xmlns="http://www.w3.org/2000/svg">
<g id="Layer 2">
<g id="Layer 1">
<path id="Vector" d="M-0.00585938 37.1767C0.570109 35.5553 1.72831 34.9459 3.42908 34.971C7.49008 35.0315 11.5511 34.9897 15.6121 34.9897C15.8458 34.9897 16.0837 34.9772 16.3153 35.0002C16.6309 35.0188 16.9274 35.1573 17.1443 35.3873C17.3611 35.6174 17.4819 35.9215 17.4819 36.2377C17.4865 36.5549 17.3672 36.8615 17.1494 37.0922C16.9316 37.3229 16.6323 37.4595 16.3153 37.4731C15.6684 37.5169 15.0152 37.4898 14.3641 37.4898C10.6683 37.4898 6.97045 37.5044 3.27466 37.4752C2.6486 37.4752 2.47957 37.663 2.48166 38.2765C2.49835 48.5883 2.49835 58.898 2.48166 69.2056C2.48166 69.8316 2.69034 69.9923 3.28926 69.9923C17.758 69.977 32.2331 69.977 46.7144 69.9923C47.3571 69.9923 47.5032 69.7837 47.4948 69.1785C47.4656 67.1229 47.4823 65.0653 47.4844 63.0098C47.4844 61.8203 47.9122 61.2234 48.7511 61.238C49.59 61.2526 49.9824 61.8349 49.9824 63.0473C49.9824 65.155 49.9824 67.2648 49.9824 69.3725C49.9824 71.3592 48.8722 72.4757 46.8959 72.4778H26.2884V77.4758H27.1231C30.1177 77.4758 33.1123 77.4758 36.0965 77.4758C36.9459 77.4758 37.4905 78.0058 37.478 78.7404C37.4655 79.4749 36.9354 79.9299 36.1341 79.9674C35.9254 79.9674 35.7167 79.9674 35.508 79.9674H14.1847C13.0745 79.9674 12.4797 79.5146 12.4943 78.6945C12.5089 77.8743 13.0828 77.4695 14.1513 77.4695H23.6965V72.4799H22.7971C16.3404 72.4799 9.88369 72.4506 3.427 72.4986C1.72831 72.5132 0.572196 71.9122 -0.00585938 70.2928V37.1767Z" fill="#00639C"/>
<path id="Vector_2" d="M77.7852 0C79.4046 0.578055 79.9973 1.73417 79.991 3.43286C79.9535 13.6876 79.9723 23.9423 79.9723 34.1992C79.9723 36.4571 78.9393 37.4901 76.6834 37.4901H64.3439C64.1101 37.4985 63.876 37.4943 63.6427 37.4776C63.3261 37.4568 63.0295 37.3154 62.814 37.0824C62.5986 36.8495 62.4806 36.5428 62.4845 36.2255C62.48 35.9082 62.6005 35.6019 62.8199 35.3727C63.0393 35.1435 63.3401 35.0098 63.6573 35.0005C64.5129 34.9588 65.3748 34.9859 66.2325 34.9838C69.6946 34.9838 73.1566 34.9838 76.6187 34.9943C77.2239 34.9943 77.4889 34.8878 77.4889 34.1908C77.4653 23.8832 77.4653 13.5763 77.4889 3.27008C77.4889 2.64403 77.2802 2.48126 76.6834 2.48126C62.2146 2.49656 47.7458 2.49656 33.2771 2.48126C32.651 2.48126 32.482 2.67116 32.4862 3.2826C32.5091 7.81105 32.4987 12.3395 32.4966 16.87C32.5137 17.1296 32.5067 17.3902 32.4757 17.6484C32.3484 18.3204 31.9311 18.7252 31.2403 18.7211C30.5496 18.7169 30.1301 18.3037 30.0195 17.6359C29.9864 17.2989 29.9794 16.9598 29.9986 16.6217C29.9986 12.2226 30.0383 7.82357 29.9778 3.4266C29.9423 1.72999 30.5558 0.578055 32.1731 0H77.7852Z" fill="#00639C"/>
<path id="Vector_3" d="M59.9784 40.0379C59.9784 50.9896 51.0049 59.9735 40.0511 59.9839C37.4157 59.9913 34.8048 59.478 32.3684 58.4734C29.932 57.4688 27.7181 55.9928 25.8538 54.1301C23.9896 52.2674 22.5117 50.0547 21.5051 47.6191C20.4985 45.1835 19.983 42.5731 19.9882 39.9377C19.9882 28.9755 28.9616 20 39.9155 19.9937C42.5507 19.986 45.1616 20.4991 47.598 21.5034C50.0343 22.5078 52.2483 23.9836 54.1126 25.8462C55.9769 27.7088 57.4548 29.9213 58.4615 32.3568C59.4681 34.7922 59.9836 37.4026 59.9784 40.0379ZM57.4741 39.969C57.4846 30.3862 49.6381 22.5126 40.0574 22.4938C37.7553 22.4847 35.4741 22.9298 33.3443 23.8036C31.2145 24.6774 29.278 25.9627 27.6457 27.586C26.0133 29.2092 24.7172 31.1385 23.8315 33.2634C22.9458 35.3882 22.4879 37.6669 22.4841 39.969C22.4736 49.5685 30.293 57.4546 39.8612 57.4839C42.1703 57.4987 44.4594 57.0566 46.5969 56.1829C48.7343 55.3092 50.6778 54.0213 52.3153 52.3933C53.9528 50.7652 55.2521 48.8293 56.1382 46.697C57.0243 44.5647 57.4797 42.2781 57.4783 39.969H57.4741Z" fill="#00639C"/>
<path id="Vector_4" d="M64.9491 44.9816C64.5317 44.9816 64.1144 45.0066 63.697 44.9816C63.5338 44.9786 63.3727 44.9434 63.2232 44.8779C63.0736 44.8124 62.9385 44.7179 62.8256 44.6C62.7127 44.4821 62.6243 44.343 62.5654 44.1907C62.5065 44.0384 62.4783 43.876 62.4825 43.7128C62.4846 43.3961 62.6103 43.0927 62.8329 42.8673C63.0555 42.642 63.3574 42.5126 63.674 42.5066C64.5317 42.4711 65.3936 42.4711 66.2513 42.5066C66.4149 42.5073 66.5768 42.5409 66.7272 42.6053C66.8776 42.6698 67.0136 42.7637 67.127 42.8816C67.2405 42.9996 67.3291 43.1391 67.3877 43.2919C67.4462 43.4447 67.4735 43.6077 67.4679 43.7712C67.4593 44.0876 67.3311 44.3889 67.1093 44.6147C66.8874 44.8404 66.5883 44.9737 66.2722 44.9878C66.2221 44.9878 66.1699 44.9878 66.1177 44.9878H64.947L64.9491 44.9816Z" fill="#00639C"/>
<path id="Vector_5" d="M37.2089 44.032L31.9501 38.7836C31.7289 38.5624 31.4931 38.3537 31.2969 38.1137C31.0862 37.8785 30.9742 37.5712 30.9843 37.2556C30.9944 36.9399 31.1258 36.6404 31.3511 36.4192C31.572 36.1933 31.8724 36.0627 32.1882 36.0553C32.5041 36.0479 32.8103 36.1642 33.0415 36.3795C33.7343 37.0056 34.3812 37.6838 35.0449 38.3453C36.5182 39.8131 37.9901 41.2822 39.4606 42.7527C40.383 43.6751 40.3914 44.2135 39.4919 45.1255C37.4343 47.1789 35.3739 49.2324 33.3107 51.2858C32.645 51.9474 32.0252 52.0329 31.4555 51.5717C30.8294 51.0605 30.8127 50.2779 31.4764 49.6059C33.1208 47.9365 34.775 46.2816 36.4389 44.6413C36.6413 44.4493 36.8834 44.2824 37.2089 44.032Z" fill="#00639C"/>
<path id="Vector_6" d="M42.8768 36.054L47.52 40.693C47.8685 41.0415 48.2275 41.3817 48.5634 41.7364C49.1144 42.3416 49.129 43.0386 48.624 43.5478C48.1189 44.057 47.3719 44.0528 46.8126 43.4977C45.3518 42.062 43.9035 40.6012 42.4511 39.1488C41.7332 38.433 41.0049 37.7276 40.3016 36.9972C39.6443 36.3127 39.6401 35.6992 40.3121 35.0231C42.4532 32.8653 44.604 30.7158 46.7646 28.5747C47.3781 27.9675 48.1002 27.9487 48.624 28.4871C49.1478 29.0255 49.1165 29.7267 48.4987 30.3527C46.7625 32.1077 45.0095 33.8482 43.2649 35.5949C43.1397 35.7368 43.0312 35.8766 42.8768 36.054Z" fill="#00639C"/>
</g>
</g>
</svg>
