<svg width="80" height="80" viewBox="0 0 80 80" fill="none" xmlns="http://www.w3.org/2000/svg">
<g id="Layer 2">
<g id="Layer 1">
<path id="Vector" d="M49.3681 64.0059V72.0029H62.2034C63.5585 72.0029 63.9806 72.4339 63.9806 73.8023C63.9806 75.3306 63.9806 76.8589 63.9806 78.385C63.9806 79.5224 63.4963 80 62.3478 80C47.4377 80 32.5262 80 17.6131 80C16.4713 80 16.0004 79.5202 15.9937 78.3739C15.9967 76.7923 15.9982 75.2099 15.9982 73.6268C15.9982 72.4828 16.478 72.0096 17.6242 72.0074C21.9271 72.0074 26.23 72.0074 30.5972 72.0074V64.0103H1.98997C0.357232 64.0036 0.00402832 63.646 0.00402832 61.9844V12.6691C0.00402832 11.0297 0.359453 10.6699 2.00329 10.6699H31.9479V5.4007C31.7507 5.36926 31.552 5.34923 31.3525 5.34072C27.7161 5.3385 24.0774 5.3385 20.441 5.3385C20.2418 5.31422 20.0403 5.35637 19.8675 5.4584C19.6948 5.56042 19.5606 5.71662 19.4858 5.90273C19.0756 6.70079 18.4021 7.33248 17.5795 7.69077C16.7568 8.04907 15.8356 8.11192 14.9719 7.86868C14.1208 7.64393 13.3681 7.14388 12.8309 6.44652C12.2938 5.74915 12.0026 4.89366 12.0026 4.01343C12.0026 3.1332 12.2938 2.27771 12.8309 1.58034C13.3681 0.882973 14.1208 0.382929 14.9719 0.158174C15.8336 -0.087412 16.7539 -0.0268541 17.576 0.329546C18.3982 0.685946 19.0715 1.31617 19.4813 2.11301C19.7412 2.60394 20.0389 2.67281 20.5187 2.67281C24.6017 2.65726 28.6846 2.67281 32.7653 2.67281C34.2826 2.67281 34.6624 3.06378 34.6646 4.60765V10.6277H45.2808C45.2963 10.4055 45.3274 10.1656 45.3274 9.92792C45.3274 8.09526 45.3274 6.2626 45.3274 4.42994C45.3274 3.11487 45.7717 2.67281 47.069 2.67281C51.1786 2.67281 55.2882 2.67281 59.3978 2.67281C59.9398 2.67281 60.2641 2.57729 60.5529 2.02638C60.9752 1.25136 61.6488 0.643207 62.4627 0.302029C63.2767 -0.0391483 64.1826 -0.0930175 65.0313 0.149289C65.8759 0.383074 66.6203 0.887851 67.15 1.58598C67.6797 2.28411 67.9654 3.13694 67.9631 4.01328C67.9608 4.88962 67.6707 5.74095 67.1374 6.43632C66.6041 7.1317 65.8571 7.63261 65.0113 7.86202C64.1614 8.09782 63.2566 8.03812 62.445 7.69267C61.6335 7.34723 60.9633 6.73651 60.544 5.96049C60.2775 5.45845 59.9954 5.32295 59.4622 5.32517C55.908 5.3496 52.3537 5.3385 48.7995 5.3385H48.0353V10.6699H78.0754C79.6037 10.6699 79.9902 11.0564 79.9902 12.5869V62.0799C79.9902 63.6127 79.6015 64.0014 78.0776 64.0014H49.3681V64.0059ZM2.68971 55.9444H77.2823V13.3911H47.9864C47.9864 16.41 47.9864 19.3889 47.9864 22.3456C47.9864 23.7073 47.6243 25.2334 48.1108 26.3841C48.5973 27.5348 49.9479 28.41 50.9187 29.4008L51.0364 29.5163C51.925 30.4182 51.925 31.0424 51.0497 31.9398C50.6432 32.3553 50.2323 32.7662 49.7169 33.2727C53.0135 33.5326 53.0135 33.5326 53.4022 35.9384C53.4744 35.9617 53.5489 35.9773 53.6244 35.985C57.8739 35.985 62.1235 36.0006 66.373 35.9673C66.6285 35.9673 66.975 35.6629 67.1216 35.4075C68.0835 33.7725 69.8717 32.9884 71.6711 33.4704C72.5231 33.6953 73.2765 34.1963 73.8135 34.8949C74.3506 35.5935 74.6409 36.4505 74.6391 37.3317C74.6373 38.2128 74.3436 39.0686 73.8037 39.7651C73.2639 40.4615 72.5084 40.9594 71.6555 41.1809C70.7918 41.4239 69.8705 41.3599 69.0486 40.9998C68.2268 40.6397 67.5552 40.0058 67.1483 39.2061C66.9084 38.7618 66.6485 38.6485 66.1864 38.6507C62.2168 38.6641 58.2449 38.6507 54.273 38.6507H53.3178C53.3178 39.0061 53.3178 39.2749 53.3178 39.5393C53.3178 40.8877 52.8735 41.3164 51.5051 41.3164H49.8924L49.7524 41.5941C50.2101 41.9917 50.6921 42.3649 51.1186 42.7914C51.8917 43.5711 51.8939 44.2509 51.1297 45.035C50.0057 46.1872 48.8676 47.3268 47.7154 48.4538C46.9002 49.2513 46.2537 49.2224 45.414 48.4049L43.9879 47.0365C43.9879 47.8829 43.9879 48.4871 43.9879 49.0891C43.9701 50.1754 43.4925 50.6596 42.404 50.6685C40.7913 50.6804 39.18 50.6804 37.5702 50.6685C36.484 50.6685 36.0153 50.1754 35.993 49.0825C35.993 48.4693 35.993 47.854 35.993 47.2409L35.7043 47.1121C35.2844 47.5897 34.8935 48.1006 34.4403 48.5427C33.7317 49.2335 33.0386 49.2268 32.3233 48.5293C31.1504 47.3846 29.9915 46.2257 28.8468 45.0528C28.0826 44.2709 28.0982 43.6045 28.8623 42.807C29.2844 42.3627 29.722 41.9362 30.2218 41.4319C29.1622 41.3386 28.2226 41.4319 27.4273 41.1476C26.3033 40.7611 26.7853 39.5926 26.6009 38.6707H25.8612C21.8627 38.6707 17.8641 38.6707 13.8656 38.6596C13.3325 38.6596 13.0526 38.7951 12.786 39.2949C12.366 40.0712 11.6948 40.6818 10.8824 41.0269C10.0701 41.3719 9.1646 41.4309 8.31431 41.1942C7.46186 40.971 6.70742 40.4716 6.16899 39.7741C5.63056 39.0765 5.33851 38.2202 5.33851 37.339C5.33851 36.4578 5.63056 35.6015 6.16899 34.9039C6.70742 34.2064 7.46186 33.7069 8.31431 33.4837C9.16407 33.2463 10.0692 33.3035 10.8823 33.6459C11.6955 33.9883 12.3688 34.5959 12.7927 35.3697C13.0548 35.8606 13.3214 36.0206 13.8656 36.0184C17.8641 35.9939 21.8627 36.005 25.8612 36.005H26.6609C26.6609 35.5963 26.6609 35.3208 26.6609 35.0432C26.6742 33.7903 27.1052 33.3482 28.3736 33.3393C28.9401 33.3393 29.5088 33.3393 30.0708 33.3393C30.0708 33.1972 30.0708 33.1616 30.0708 33.1483C29.6532 32.704 29.2289 32.2597 28.8157 31.8155C28.1048 31.0513 28.1004 30.3871 28.8335 29.634C29.7065 28.7455 30.6328 27.8947 31.468 26.9683C31.7675 26.6328 31.9459 26.2065 31.9745 25.7577C32.0123 21.8969 31.9967 18.0361 31.9945 14.1753C31.9945 13.9087 31.9701 13.6421 31.959 13.4022H2.68971V55.9444ZM77.2823 58.7278H2.73636V61.298H77.2823V58.7278ZM48.3196 30.7669L46.5181 28.8543C45.5629 29.885 44.8076 30.8314 43.0083 30.0939C41.2089 29.3564 41.28 28.139 41.3355 26.7262H38.5854C39.0541 28.6144 38.3144 29.5718 36.5395 30.2649C34.8535 30.9313 34.3403 29.6229 33.3962 28.9809L31.548 30.8358C32.4966 31.7666 33.5073 32.5019 32.7498 34.3123C31.9923 36.1228 30.8194 36.0761 29.3888 35.9939V38.7596C30.9194 38.5796 31.9834 38.7596 32.7209 40.4678C33.4718 42.2227 32.5699 43.0247 31.5258 43.9954L33.434 45.7992C34.3803 44.5863 35.2467 43.8799 37.0171 44.5908C38.852 45.3283 38.6721 46.59 38.6787 47.9451H41.3444C41.1378 46.4345 41.2822 45.3616 42.9883 44.613C44.7787 43.8333 45.5962 44.8173 46.6536 45.8037L48.5129 43.8422C47.3222 42.8803 46.5603 42.065 47.2556 40.2879C47.982 38.4397 49.2793 38.6685 50.661 38.6285V35.9006C48.2641 36.6714 47.551 35.1387 46.9646 33.3904C46.4959 32.0109 47.822 31.6222 48.3196 30.7669ZM43.9879 27.5637C44.7876 26.9239 45.3696 26.4685 45.3496 25.4178C45.2763 21.6992 45.3207 17.9761 45.3207 14.2552V13.3667H34.658V14.2241C34.658 18.0005 34.6913 21.7769 34.6358 25.5533C34.6224 26.5774 35.2822 26.935 35.9908 27.6014V26.4752C35.9908 26.142 35.9908 25.8088 35.9908 25.4756C36.0241 24.5337 36.5018 24.0228 37.4325 24.0116C39.1252 23.9909 40.8187 23.9909 42.5129 24.0116C43.4814 24.0116 43.9635 24.5359 43.9834 25.5311C44.0057 26.1553 43.9879 26.7817 43.9879 27.5637ZM18.7038 77.2788H61.286V74.7175H18.7038V77.2788ZM46.6247 64.0481H33.3829V71.9474H46.6247V64.0481ZM16.0137 2.67281C15.7495 2.66972 15.4903 2.74527 15.269 2.88983C15.0478 3.0344 14.8746 3.24147 14.7713 3.48473C14.668 3.72799 14.6394 3.99645 14.6891 4.25601C14.7387 4.51558 14.8644 4.75452 15.0502 4.94248C15.236 5.13044 15.4734 5.25893 15.7324 5.31163C15.9913 5.36434 16.2601 5.33886 16.5046 5.23846C16.749 5.13805 16.9581 4.96724 17.1053 4.74773C17.2524 4.52822 17.331 4.26992 17.331 4.00565C17.331 3.65484 17.1927 3.31816 16.9461 3.06864C16.6995 2.81913 16.3645 2.6769 16.0137 2.67281ZM65.329 4.02787C65.3333 3.76402 65.2593 3.50481 65.1162 3.28308C64.9731 3.06135 64.7675 2.88708 64.5253 2.78236C64.283 2.67763 64.0152 2.64716 63.7556 2.69481C63.4961 2.74245 63.2565 2.86607 63.0673 3.04999C62.8781 3.23392 62.7477 3.46987 62.6927 3.72796C62.6377 3.98605 62.6606 4.25466 62.7584 4.49975C62.8562 4.74484 63.0245 4.95538 63.2421 5.10469C63.4597 5.25401 63.7167 5.33538 63.9806 5.3385C64.3299 5.33856 64.6652 5.20149 64.9145 4.95679C65.1638 4.7121 65.307 4.37933 65.3134 4.03009L65.329 4.02787ZM9.31173 38.6596C9.57624 38.664 9.83608 38.5896 10.0582 38.4459C10.2803 38.3021 10.4545 38.0955 10.5588 37.8524C10.6631 37.6093 10.6927 37.3406 10.6438 37.0806C10.5949 36.8206 10.4698 36.5811 10.2843 36.3924C10.0988 36.2038 9.86138 36.0746 9.60224 36.0214C9.34311 35.9681 9.07399 35.9932 8.82915 36.0934C8.5843 36.1936 8.37481 36.3644 8.22735 36.584C8.07989 36.8037 8.00113 37.0622 8.00109 37.3268C8.00387 37.6756 8.14216 38.0096 8.38673 38.2584C8.63131 38.5071 8.96301 38.651 9.31173 38.6596ZM71.9776 37.3712C71.9856 37.106 71.9142 36.8445 71.7727 36.6201C71.6312 36.3957 71.4259 36.2187 71.1832 36.1117C70.9404 36.0046 70.6713 35.9725 70.4101 36.0193C70.149 36.0661 69.9078 36.1898 69.7174 36.3745C69.527 36.5592 69.396 36.7965 69.3412 37.0561C69.2865 37.3157 69.3104 37.5857 69.41 37.8316C69.5096 38.0775 69.6803 38.288 69.9003 38.4363C70.1203 38.5846 70.3795 38.6639 70.6448 38.6641C70.9906 38.6614 71.3221 38.5256 71.5704 38.2848C71.8186 38.044 71.9645 37.7168 71.9776 37.3712Z" fill="#00639C"/>
<path id="Vector_2" d="M15.9983 27.997C18.2419 27.997 20.3745 27.9859 22.5048 27.997C23.4178 27.997 23.9954 28.5457 23.9909 29.3299C23.9931 29.5046 23.9599 29.6779 23.8934 29.8395C23.827 30.0011 23.7286 30.1476 23.6041 30.2702C23.4796 30.3928 23.3317 30.489 23.1691 30.553C23.0065 30.617 22.8327 30.6475 22.6581 30.6427C19.9924 30.6679 17.3267 30.6679 14.661 30.6427C13.788 30.6427 13.3282 30.0585 13.3282 29.0878C13.3282 25.9511 13.3282 22.8167 13.3282 19.6801V18.6671H12.153C10.3515 18.6671 8.54769 18.6805 6.74391 18.6671C5.89533 18.6671 5.33776 18.0896 5.34442 17.3343C5.35108 16.579 5.90421 16.0237 6.75723 16.017C9.36517 15.9992 11.9731 15.9992 14.581 16.017C15.5229 16.017 15.9961 16.5701 15.9983 17.5875C15.9983 20.7242 15.9983 23.8586 15.9983 26.9952V27.997Z" fill="#00639C"/>
<path id="Vector_3" d="M66.6596 18.6669V25.0801C66.6596 26.4396 66.6707 27.7991 66.6596 29.1586C66.6596 30.1449 66.1509 30.6559 65.1735 30.6603C62.6218 30.6766 60.0694 30.6766 57.5163 30.6603C56.5989 30.6603 56.0191 30.1294 56.008 29.3475C55.9969 28.5655 56.59 28.0146 57.5629 28.0013C59.6688 28.0013 61.7836 28.0013 64.005 28.0013V27.0861C64.005 23.9761 64.005 20.8661 64.005 17.7562C64.005 16.4433 64.4493 16.0012 65.7422 15.999C68.122 16.0005 70.5041 16.0012 72.8884 16.0012C74.0236 16.0012 74.6367 16.4633 74.65 17.3119C74.6633 18.1605 74.028 18.6669 72.844 18.6669C70.8225 18.6669 68.8011 18.6669 66.6596 18.6669Z" fill="#00639C"/>
<path id="Vector_4" d="M45.3208 37.3088C45.3264 38.3623 45.0198 39.3939 44.4397 40.2732C43.8596 41.1526 43.032 41.8404 42.0613 42.2498C41.0906 42.6592 40.0204 42.7719 38.9858 42.5735C37.9511 42.3752 36.9984 41.8748 36.2479 41.1354C35.4974 40.3961 34.9828 39.451 34.769 38.4194C34.5552 37.3879 34.6518 36.3161 35.0467 35.3394C35.4415 34.3627 36.1168 33.5249 36.9874 32.9316C37.858 32.3384 38.8849 32.0165 39.9383 32.0063C40.6403 31.9996 41.3367 32.1316 41.9875 32.3947C42.6384 32.6578 43.2309 33.0468 43.731 33.5395C44.2311 34.0322 44.629 34.6188 44.9018 35.2656C45.1746 35.9125 45.317 36.6068 45.3208 37.3088ZM42.6551 37.3755C42.6648 36.8463 42.5167 36.3262 42.2298 35.8814C41.9428 35.4367 41.53 35.0874 41.0438 34.8781C40.5577 34.6689 40.0202 34.6091 39.4999 34.7063C38.9797 34.8036 38.5001 35.0536 38.1224 35.4243C37.7447 35.7951 37.4859 36.2699 37.3791 36.7883C37.2722 37.3067 37.322 37.8452 37.5223 38.3351C37.7225 38.8251 38.0641 39.2443 38.5035 39.5394C38.9428 39.8346 39.4601 39.9922 39.9894 39.9923C40.688 39.9924 41.3587 39.7183 41.8572 39.2289C42.3558 38.7395 42.6423 38.074 42.6551 37.3755Z" fill="#00639C"/>
</g>
</g>
</svg>
