<svg width="82" height="80" viewBox="0 0 82 80" fill="none" xmlns="http://www.w3.org/2000/svg">
<g id="Layer 4">
<g id="Layer 1">
<path id="Vector" d="M81.1385 62.3492C80.5707 63.9754 79.41 64.5683 77.7066 64.5558C70.874 64.5077 64.0393 64.537 57.2067 64.537H56.2172C56.1254 65.4868 56.0732 66.4158 55.9417 67.326C55.0774 73.3089 50.2572 78.39 44.2743 79.6676C38.1744 80.9619 31.8262 78.4005 28.5111 73.3047C28.0226 72.5553 28.0936 71.856 28.7199 71.4593C29.3461 71.0627 29.9327 71.2506 30.4442 71.975C33.1246 75.7973 36.8071 77.7241 41.4749 77.6573C47.6937 77.555 53.1819 72.4384 53.7226 66.3156C54.3029 59.7043 50.0172 53.7902 43.7232 52.5168C34.8865 50.7278 27.1208 58.0718 28.4715 66.9377C28.603 67.8082 28.2356 68.4177 27.507 68.5284C26.8139 68.6349 26.2795 68.1923 26.1668 67.3427C26.0457 66.445 25.9873 65.539 25.8933 64.5453H24.9852C18.5138 64.5453 12.0423 64.4952 5.5709 64.5704C3.27458 64.5975 1.70264 63.7938 0.959473 61.5747V47.8156C1.48345 46.1936 2.52097 45.1143 4.22233 44.822V42.0915C2.49174 41.8535 1.56278 40.7262 0.976173 39.2211V25.3138C1.56278 23.7752 2.54184 22.6667 4.24738 22.4246V19.7108C2.49592 19.4143 1.49806 18.3163 0.976173 16.7193V2.96851C1.17518 2.25981 1.55346 1.61435 2.07451 1.09439C2.59557 0.574427 3.24183 0.197512 3.95095 0L8.80453 0C9.28467 0.417512 9.73141 0.862163 9.4308 1.58863C9.13019 2.31511 8.53315 2.35894 7.87348 2.34851C6.93616 2.33181 5.99467 2.34851 5.05736 2.34851C3.77768 2.34851 3.31633 2.80986 3.31424 4.08953C3.31424 7.8889 3.31424 11.689 3.31424 15.4897C3.31424 16.951 3.73176 17.3685 5.15756 17.3685C19.4768 17.3685 33.7954 17.3685 48.1133 17.3685C49.5746 17.3685 49.9921 16.9677 49.9921 15.5335C49.9921 11.7843 49.9921 8.03572 49.9921 4.28785C49.9921 2.73888 49.608 2.35686 48.057 2.35686C36.7841 2.35686 25.5169 2.35686 14.2552 2.35686C13.5788 2.35686 12.9734 2.26083 12.7417 1.53853C12.51 0.816237 12.9024 0.340273 13.5015 0H49.3554C49.5934 0.0981154 49.8356 0.187881 50.0694 0.294346C51.4806 0.935228 52.3114 2.02076 52.326 3.57182C52.3636 7.76364 52.3552 11.9576 52.326 16.1494C52.313 16.9117 52.0574 17.65 51.5965 18.2573C51.1356 18.8647 50.4932 19.3094 49.7625 19.5271C49.5245 19.6043 49.2824 19.669 49.0861 19.7254V22.4037C51.4597 22.9569 52.4408 24.4913 52.3719 26.8481H66.4442C66.7048 26.8352 66.9659 26.8442 67.225 26.8753C67.4749 26.9002 67.7075 27.0143 67.88 27.1969C68.0526 27.3794 68.1535 27.618 68.1644 27.8689C68.2249 28.4242 68.0057 28.8605 67.4796 29.0526C67.1577 29.1533 66.8209 29.1978 66.4839 29.1841C62.022 29.1925 57.5602 29.1925 53.0984 29.1841H52.1444C52.4555 30.1632 52.7185 31.0003 52.9794 31.8082H75.6378C75.6378 31.1172 75.6253 30.4951 75.6378 29.8709C75.6524 29.372 75.4395 29.1674 74.9364 29.1799C74.1557 29.1987 73.3707 29.2071 72.59 29.1799C71.8092 29.1528 71.3145 28.6309 71.3374 27.9608C71.3604 27.2907 71.8364 26.8794 72.59 26.8523C73.0325 26.8356 73.4793 26.8774 73.9198 26.8523C77.3162 26.5851 78.1846 28.2489 77.9759 30.8709C77.9508 31.1986 77.9759 31.5305 77.9759 31.8792C79.6459 31.8499 80.6146 32.6432 81.126 34.0732L81.1385 62.3492ZM34.325 51.4501L34.9888 51.1536C36.9984 50.2705 39.1768 49.8372 41.3714 49.8841C43.566 49.931 45.7238 50.4569 47.6938 51.4251C49.6639 52.3934 51.3985 53.7804 52.7763 55.4893C54.1541 57.1981 55.1418 59.1874 55.6703 61.318C55.8603 62.0716 56.163 62.2114 56.8665 62.2073C63.8055 62.1822 70.7446 62.1926 77.6836 62.1926C78.7817 62.1926 78.7838 62.1926 78.7838 61.128V35.3508C78.7838 34.2277 78.7838 34.2277 77.6628 34.2277H52.7811C51.3804 34.2277 51.2238 34.1108 50.7979 32.7664C50.4952 31.7998 50.1717 30.8375 49.9003 29.8605C49.7688 29.3845 49.5475 29.1883 49.0298 29.1904C45.8205 29.2113 42.6119 29.2113 39.404 29.1904C38.8842 29.1904 38.6629 29.3991 38.5377 29.8688C38.3456 30.5974 38.0993 31.3113 37.8717 32.0295C37.2142 34.1275 37.2121 34.1379 35.0222 34.2277C34.5296 34.2465 34.3187 34.4135 34.3208 34.9207C34.3292 40.3797 34.325 45.8449 34.325 51.4501ZM49.9379 26.8481C50.0819 25.2678 49.631 24.7606 48.1739 24.7606H5.12207C3.76933 24.7606 3.32677 25.2031 3.32468 26.5308C3.32468 30.3316 3.32468 34.1337 3.32468 37.9373C3.32468 39.3672 3.74219 39.7785 5.20349 39.7806H31.1143C31.3899 39.7806 31.6654 39.7576 31.9765 39.7409C31.9765 37.9894 31.9639 36.3236 31.9765 34.6598C31.9911 33.3279 32.8115 32.0545 34.064 32.0441C35.5859 32.0441 35.7216 31.0921 36.0117 30.0922C36.1119 29.7415 36.2205 29.395 36.3353 29.0484C36.8384 27.489 37.688 26.8586 39.3372 26.8544C42.5451 26.8544 45.7544 26.8544 48.965 26.8544L49.9379 26.8481ZM26.1125 62.1926C26.1587 62.1419 26.1986 62.0858 26.2315 62.0256C26.2753 61.8753 26.3108 61.725 26.3463 61.5726C27.0999 58.4162 28.6656 55.7275 31.1477 53.6399C31.44 53.4203 31.6706 53.1288 31.8169 52.7937C31.9632 52.4586 32.0204 52.0914 31.9827 51.7277C31.9305 50.2309 31.9681 48.73 31.9681 47.2186C31.7364 47.2019 31.6091 47.1872 31.4817 47.1872C22.6165 47.1872 13.7514 47.1872 4.88618 47.1872C3.80899 47.1872 3.32051 47.6903 3.31842 48.7801C3.31842 52.6309 3.31842 56.4825 3.31842 60.3347C3.31842 61.773 3.73593 62.1968 5.17635 62.1968H26.1125V62.1926ZM46.6583 19.7713H6.67939V22.3515H46.6583V19.7713ZM6.68148 44.7824H31.9285V42.1687H6.68148V44.7824Z" fill="#00639C"/>
<path id="Vector_2" d="M33.4629 60.8839C34.4566 59.8025 35.3313 58.6711 36.3855 57.7526C37.5483 56.7422 39.0158 56.2913 40.571 56.2307C41.6378 56.1827 42.1806 56.5501 42.2056 57.333C42.2307 58.1158 41.7422 58.4999 40.7255 58.5667C38.8238 58.692 37.3687 59.575 36.3124 61.1407C36.2561 61.2263 36.2143 61.3202 36.1245 61.4914C36.3458 61.4914 36.5421 61.4288 36.661 61.4914C37.0305 61.7315 37.5545 61.9611 37.6652 62.3076C37.705 62.5246 37.6927 62.7479 37.6292 62.9592C37.5656 63.1705 37.4528 63.3636 37.2998 63.5226C36.4997 64.1503 35.6477 64.709 34.753 65.1926C34.1267 65.5413 33.5882 65.2887 33.2061 64.7208C32.7886 64.0946 32.3962 63.4474 31.9724 62.8232C31.5486 62.1991 31.2981 61.6041 31.9014 60.9945C32.0943 60.7737 32.3668 60.6381 32.6593 60.6173C32.9519 60.5966 33.2407 60.6924 33.4629 60.8839Z" fill="#00639C"/>
<path id="Vector_3" d="M46.0256 68.3931C45.7918 68.4035 45.6728 68.416 45.5559 68.4119C44.9714 68.3889 44.46 68.1175 44.4203 67.5518C44.411 67.3213 44.4488 67.0914 44.5314 66.8761C44.6139 66.6607 44.7395 66.4645 44.9004 66.2993C45.6373 65.7214 46.4208 65.2054 47.2427 64.7565C47.8689 64.3808 48.4409 64.5207 48.8731 65.1386C49.3344 65.7982 49.7415 66.4955 50.1924 67.1614C50.5974 67.7585 50.7686 68.3618 50.1924 68.9191C49.6475 69.4452 49.0589 69.3137 48.4514 68.8461C48.3199 69.082 48.2029 69.3033 48.0756 69.5224C46.5788 72.1027 44.3472 73.5076 41.3578 73.6976C40.4978 73.7498 39.9633 73.3427 39.9112 72.6308C39.859 71.919 40.2974 71.4367 41.1741 71.3783C43.27 71.2217 44.8649 70.2886 46.0256 68.3931Z" fill="#00639C"/>
<path id="Vector_4" d="M9.71262 13.5686C8.98226 13.5616 8.27028 13.3388 7.66622 12.9282C7.06217 12.5176 6.59302 11.9375 6.31779 11.2609C6.04256 10.5844 5.97354 9.84155 6.1194 9.12587C6.26527 8.41019 6.6195 7.75361 7.13756 7.23874C7.65562 6.72386 8.31436 6.37368 9.03093 6.23222C9.7475 6.09077 10.4899 6.16437 11.1647 6.44376C11.8396 6.72316 12.4168 7.19587 12.8236 7.80244C13.2305 8.40901 13.4489 9.12236 13.4514 9.85275C13.4405 10.8388 13.0424 11.7811 12.3429 12.4762C11.6435 13.1714 10.6988 13.5637 9.71262 13.5686ZM11.0946 9.811C11.0891 9.45112 10.9408 9.10818 10.6824 8.85763C10.424 8.60707 10.0767 8.46942 9.7168 8.47496C9.35692 8.4805 9.01399 8.62877 8.76343 8.88715C8.51288 9.14554 8.37522 9.49287 8.38076 9.85275C8.3835 10.0309 8.42131 10.2069 8.49204 10.3704C8.56276 10.534 8.66501 10.6821 8.79295 10.8061C8.92089 10.9302 9.07202 11.0278 9.23769 11.0935C9.40337 11.1591 9.58036 11.1915 9.75855 11.1888C9.93674 11.186 10.1127 11.1482 10.2762 11.0775C10.4398 11.0068 10.5879 10.9045 10.7119 10.7766C10.836 10.6487 10.9336 10.4975 10.9993 10.3319C11.0649 10.1662 11.0973 9.98919 11.0946 9.811Z" fill="#00639C"/>
<path id="Vector_5" d="M23.5489 9.84479C23.5493 10.5768 23.3321 11.2923 22.925 11.9007C22.5179 12.509 21.9391 12.9826 21.2623 13.2613C20.5855 13.5401 19.8411 13.6114 19.1237 13.4663C18.4062 13.3211 17.7481 12.966 17.2329 12.4461C16.7176 11.9261 16.3685 11.2648 16.2299 10.5461C16.0913 9.82736 16.1694 9.08364 16.4543 8.40938C16.7392 7.73512 17.218 7.16074 17.83 6.75916C18.442 6.35759 19.1595 6.14695 19.8915 6.15398C20.8639 6.16495 21.7928 6.55838 22.4773 7.24912C23.1618 7.93986 23.5467 8.87235 23.5489 9.84479ZM19.8497 11.2101C20.2026 11.208 20.5407 11.0683 20.7922 10.8207C21.0436 10.5731 21.1886 10.2372 21.1962 9.88445C21.208 9.53187 21.0795 9.18899 20.8388 8.93107C20.5981 8.67315 20.2649 8.52127 19.9123 8.50875C19.7307 8.5023 19.5496 8.53252 19.3799 8.59761C19.2102 8.66269 19.0554 8.76131 18.9246 8.88757C18.7939 9.01383 18.6899 9.16515 18.619 9.33248C18.548 9.49981 18.5115 9.67973 18.5116 9.86149C18.5195 10.2149 18.6626 10.5518 18.9116 10.8027C19.1606 11.0536 19.4964 11.1994 19.8497 11.2101Z" fill="#00639C"/>
<path id="Vector_6" d="M39.8339 11.2267C40.0949 11.2267 40.3558 11.2121 40.6147 11.2267C41.2994 11.2685 41.767 11.711 41.7962 12.3289C41.8067 12.6315 41.6994 12.9263 41.497 13.1513C41.2945 13.3764 41.0126 13.5141 40.7107 13.5356C40.1165 13.594 39.518 13.594 38.9237 13.5356C38.7733 13.5248 38.6267 13.4831 38.4932 13.4131C38.3596 13.3431 38.2419 13.2463 38.1474 13.1288C38.053 13.0112 37.9838 12.8754 37.9443 12.7299C37.9047 12.5843 37.8956 12.4322 37.9175 12.283C37.9927 11.6192 38.3914 11.2726 39.0553 11.2392C39.3141 11.2163 39.5751 11.2267 39.8339 11.2267Z" fill="#00639C"/>
<path id="Vector_7" d="M33.7239 11.2308C34.0078 11.2308 34.2959 11.2162 34.5798 11.2308C34.8575 11.2284 35.1252 11.3339 35.3266 11.5252C35.5279 11.7164 35.6471 11.9784 35.659 12.2558C35.7279 12.8675 35.4273 13.3789 34.824 13.4666C34.1078 13.5647 33.3816 13.5647 32.6655 13.4666C32.0538 13.3831 31.7574 12.8883 31.8158 12.2621C31.8743 11.6358 32.248 11.2809 32.8742 11.2183C33.1498 11.2099 33.4379 11.2308 33.7239 11.2308Z" fill="#00639C"/>
<path id="Vector_8" d="M39.78 8.46663C39.495 8.48336 39.2092 8.48336 38.9241 8.46663C38.6603 8.45511 38.4107 8.34402 38.2255 8.15576C38.0403 7.96749 37.9334 7.71604 37.9263 7.45208C37.8636 6.82581 38.135 6.32479 38.7613 6.2392C39.4794 6.14943 40.2059 6.14943 40.924 6.2392C41.5085 6.306 41.8133 6.79032 41.7924 7.36022C41.8039 7.63796 41.7061 7.90914 41.5199 8.11558C41.3337 8.32203 41.0741 8.4473 40.7967 8.46454C40.4609 8.48543 40.1241 8.48543 39.7884 8.46454L39.78 8.46663Z" fill="#00639C"/>
<path id="Vector_9" d="M33.6902 8.46906C33.4051 8.48472 33.1194 8.48472 32.8343 8.46906C32.208 8.39808 31.8406 8.03693 31.8051 7.40649C31.7655 6.73847 32.1057 6.28547 32.7633 6.20614C33.3809 6.13413 34.0044 6.12783 34.6233 6.18735C35.2809 6.24372 35.6421 6.68002 35.6671 7.33133C35.6984 7.94508 35.2162 8.42104 34.5398 8.47741C34.2559 8.50246 33.9678 8.47741 33.6839 8.47741L33.6902 8.46906Z" fill="#00639C"/>
<path id="Vector_10" d="M45.6312 8.65274C45.1469 8.44398 44.6438 8.33752 44.3014 8.04734C43.8338 7.64862 43.9403 6.86578 44.4058 6.45662C44.9235 6.00362 46.4015 6.01406 46.9109 6.47541C47.4203 6.93676 47.4745 7.65697 46.9902 8.05987C46.6353 8.35004 46.1301 8.44398 45.6312 8.65274Z" fill="#00639C"/>
<path id="Vector_11" d="M45.6502 11.2376C45.8587 11.2248 46.0679 11.2248 46.2764 11.2376C46.8777 11.3127 47.2743 11.7031 47.2555 12.2605C47.2116 12.6842 47.0114 13.0764 46.694 13.3606C46.2514 13.7468 44.8339 13.6904 44.4853 13.275C44.2165 12.946 44.0717 12.533 44.0762 12.1081C44.1096 11.4818 44.6586 11.2229 45.6502 11.2376Z" fill="#00639C"/>
<path id="Vector_12" d="M27.8725 13.5692C27.2587 13.5984 26.5719 13.5066 26.4112 12.7885C26.3193 12.396 26.5448 11.5777 26.7619 11.5359C27.5168 11.3678 28.298 11.3543 29.0582 11.4963C29.2795 11.5359 29.5196 12.2666 29.4945 12.6632C29.4402 13.3103 28.8933 13.5692 27.8725 13.5692Z" fill="#00639C"/>
<path id="Vector_13" d="M27.9056 8.70912C27.3691 8.42313 26.8117 8.277 26.4965 7.91794C26.102 7.4712 26.223 6.88668 26.6844 6.45664C27.1917 5.98903 28.6822 5.99738 29.1728 6.47126C29.6216 6.90547 29.751 7.4879 29.3377 7.93255C29.0141 8.28744 28.4588 8.4273 27.9056 8.70912Z" fill="#00639C"/>
<path id="Vector_14" d="M19.8351 28.585C20.5649 28.5825 21.279 28.7968 21.8869 29.2007C22.4947 29.6046 22.9689 30.18 23.2493 30.8537C23.5297 31.5275 23.6038 32.2694 23.462 32.9853C23.3202 33.7012 22.9691 34.3588 22.453 34.8749C21.937 35.3909 21.2793 35.7421 20.5634 35.8839C19.8475 36.0256 19.1056 35.9516 18.4319 35.6712C17.7581 35.3908 17.1828 34.9166 16.7789 34.3087C16.3749 33.7009 16.1606 32.9868 16.1631 32.257C16.1612 31.7743 16.2548 31.2959 16.4387 30.8495C16.6225 30.4031 16.893 29.9976 17.2343 29.6562C17.5757 29.3148 17.9812 29.0444 18.4276 28.8606C18.874 28.6767 19.3524 28.5831 19.8351 28.585ZM19.8748 30.9314C19.5205 30.9331 19.1813 31.0754 18.9319 31.3272C18.6825 31.5789 18.5434 31.9194 18.545 32.2737C18.5467 32.6281 18.689 32.9672 18.9408 33.2166C19.1925 33.466 19.533 33.6052 19.8873 33.6035C20.2417 33.6018 20.5808 33.4595 20.8302 33.2077C21.0796 32.956 21.2188 32.6155 21.2171 32.2612C21.2154 31.9068 21.0731 31.5677 20.8214 31.3183C20.5696 31.0689 20.2291 30.9297 19.8748 30.9314Z" fill="#00639C"/>
<path id="Vector_15" d="M9.70218 35.9519C8.97673 35.9375 8.27168 35.7092 7.67545 35.2957C7.07921 34.8822 6.61835 34.3018 6.35064 33.6274C6.08294 32.953 6.02031 32.2146 6.17063 31.5048C6.32094 30.7949 6.6775 30.1452 7.19558 29.6372C7.71366 29.1292 8.37021 28.7855 9.08288 28.6491C9.79554 28.5128 10.5326 28.5899 11.2016 28.8708C11.8706 29.1517 12.4418 29.6239 12.8435 30.2281C13.2453 30.8323 13.4597 31.5417 13.4598 32.2673C13.4563 32.7563 13.3561 33.2399 13.1651 33.6901C12.9741 34.1403 12.6961 34.5483 12.3469 34.8907C11.9977 35.2331 11.5843 35.5031 11.1304 35.6852C10.6766 35.8673 10.1912 35.9579 9.70218 35.9519ZM11.0946 32.2297C11.0906 31.9601 11.0062 31.6978 10.8522 31.4764C10.6983 31.255 10.4817 31.0846 10.2303 30.9869C9.97896 30.8893 9.70416 30.8689 9.44113 30.9284C9.17809 30.9879 8.93879 31.1245 8.75385 31.3208C8.56891 31.517 8.44676 31.764 8.40302 32.0301C8.35928 32.2962 8.39595 32.5693 8.50833 32.8145C8.62072 33.0596 8.8037 33.2657 9.03386 33.4062C9.26403 33.5467 9.53089 33.6154 9.8003 33.6034C10.1528 33.5892 10.4858 33.4375 10.7278 33.1807C10.9697 32.9239 11.1014 32.5825 11.0946 32.2297Z" fill="#00639C"/>
<path id="Vector_16" d="M13.4512 54.6939C13.4503 55.4263 13.2328 56.1421 12.826 56.7511C12.4192 57.3602 11.8413 57.8352 11.1651 58.1165C10.4889 58.3979 9.74454 58.4728 9.0258 58.332C8.30706 58.1911 7.64605 57.8408 7.126 57.3251C6.60594 56.8094 6.25008 56.1513 6.10322 55.4338C5.95636 54.7163 6.02506 53.9713 6.30068 53.2928C6.5763 52.6142 7.04651 52.0324 7.65212 51.6205C8.25772 51.2086 8.97166 50.985 9.70403 50.978C10.6931 50.9758 11.6428 51.3656 12.3451 52.062C13.0474 52.7585 13.4451 53.7048 13.4512 54.6939ZM9.76457 56.0279C10.1133 56.0141 10.4432 55.8659 10.6851 55.6143C10.927 55.3627 11.0621 55.0273 11.0621 54.6782C11.0621 54.3292 10.927 53.9937 10.6851 53.7421C10.4432 53.4905 10.1133 53.3424 9.76457 53.3286C9.58287 53.3215 9.4016 53.3511 9.23162 53.4157C9.06164 53.4803 8.90646 53.5786 8.77538 53.7046C8.6443 53.8306 8.54001 53.9818 8.46878 54.1491C8.39754 54.3164 8.36082 54.4964 8.36082 54.6782C8.36082 54.8601 8.39754 55.04 8.46878 55.2074C8.54001 55.3747 8.6443 55.5259 8.77538 55.6519C8.90646 55.7779 9.06164 55.8762 9.23162 55.9408C9.4016 56.0054 9.58287 56.035 9.76457 56.0279Z" fill="#00639C"/>
<path id="Vector_17" d="M23.5488 54.6455C23.5534 55.3772 23.3404 56.0938 22.9371 56.7043C22.5337 57.3148 21.958 57.7917 21.2832 58.0745C20.6083 58.3572 19.8647 58.4332 19.1466 58.2926C18.4285 58.152 17.7683 57.8013 17.2499 57.2849C16.7315 56.7686 16.3781 56.1098 16.2347 55.3923C16.0913 54.6748 16.1643 53.9308 16.4444 53.2548C16.7245 52.5789 17.1991 52.0013 17.808 51.5955C18.4168 51.1897 19.1325 50.974 19.8643 50.9756C20.8381 50.9783 21.7715 51.3654 22.4615 52.0526C23.1514 52.7399 23.5422 53.6717 23.5488 54.6455ZM19.8705 53.3262C19.5171 53.3302 19.1788 53.4702 18.9257 53.717C18.6727 53.9638 18.5244 54.2986 18.5115 54.6518C18.5063 55.005 18.639 55.3463 18.8815 55.6032C19.124 55.8601 19.4571 56.0123 19.81 56.0275C19.9911 56.034 20.1717 56.0036 20.3406 55.9381C20.5096 55.8725 20.6635 55.7732 20.7928 55.6462C20.9221 55.5193 21.0242 55.3673 21.0928 55.1995C21.1615 55.0318 21.1952 54.8518 21.192 54.6706C21.1904 54.3185 21.0514 53.9809 20.8046 53.7297C20.5577 53.4786 20.2226 53.3338 19.8705 53.3262Z" fill="#00639C"/>
</g>
</g>
</svg>
