<svg width="96" height="80" viewBox="0 0 96 80" fill="none" xmlns="http://www.w3.org/2000/svg">
<g id="Layer 2">
<g id="Layer 1">
<path id="Vector" d="M0.80127 1.5254C1.40451 0.341176 2.37612 0 3.67902 0C12.9625 0.0395566 22.2459 0.0197783 31.5318 0.0222506C33.7272 0.0222506 34.4046 0.697186 34.4071 2.88763C34.4071 4.49215 34.4219 6.10161 34.4071 7.70118C34.3675 11.7928 31.6876 14.4555 27.591 14.4629C25.6552 14.4629 23.7194 14.4629 21.6921 14.4629C21.6921 15.9957 21.6723 17.4296 21.7168 18.8759C21.7168 19.0638 22.0481 19.2715 22.2632 19.4124C22.372 19.4816 22.5624 19.4273 22.7181 19.4273C28.6689 19.4273 34.6222 19.4273 40.5755 19.405C41.0849 19.3894 41.5771 19.2167 41.9847 18.9105C58.1708 6.37356 81.8652 12.9771 89.2178 32.1052C89.465 32.7677 89.7716 33.0249 90.4712 32.968C91.2411 32.9223 92.013 32.9223 92.7828 32.968C94.3082 33.0249 95.5023 34.1473 95.5345 35.6628C95.5823 38.7136 95.5823 41.7628 95.5345 44.8103C95.5147 46.1824 94.5035 47.2405 93.1314 47.4531C92.5578 47.5421 91.9694 47.5347 91.2673 47.5792C91.2673 49.2159 91.3044 50.8402 91.2525 52.4645C91.2501 53.4489 91.1424 54.4302 90.9311 55.3917C90.4739 57.2166 89.4256 58.8389 87.9499 60.0056C86.4741 61.1724 84.6537 61.818 82.7725 61.8419C81.9443 61.8592 81.1161 61.8419 80.325 61.8419C80.0233 63.2783 79.8305 64.6504 79.4374 65.9681C75.8007 78.5076 60.9175 83.9812 50.0172 76.8066L49.7872 76.6534C48.8206 75.9883 48.5511 75.2417 49.0455 74.5C49.54 73.7583 50.3237 73.6569 51.3027 74.3146C53.5064 75.797 56.0211 76.7536 58.6529 77.1107C67.3059 78.332 75.907 71.9807 77.2148 63.3401C77.3694 62.2757 77.4479 61.2016 77.4497 60.1261C77.4769 56.2693 77.462 52.415 77.4497 48.5583C77.4497 48.2591 77.4225 47.9575 77.4052 47.6064H43.9526V48.5953C43.9526 52.3582 43.9675 56.121 43.9526 59.8838C43.9328 63.4266 44.7833 66.7098 46.7241 69.6963C47.2828 70.5542 47.2408 71.2761 46.6697 71.7805C45.9898 72.3788 45.0652 72.1933 44.4767 71.3083C42.7293 68.7155 41.646 65.7329 41.3221 62.6231C41.3073 62.4698 41.2924 62.3165 41.2652 62.1633C41.2294 62.0615 41.1848 61.963 41.1317 61.8691C40.5285 61.8691 39.8635 61.8691 39.1959 61.8691C33.9225 61.8468 30.2339 58.1606 30.2092 52.9169C30.2092 51.164 30.2092 49.4137 30.2092 47.5421C29.6974 47.5421 29.2746 47.5594 28.8543 47.5421C27.0397 47.4556 25.9321 46.3456 25.9173 44.5358C25.8942 41.668 25.8942 38.7993 25.9173 35.9298C25.9346 34.1151 27.0743 33.0075 28.884 32.963C29.8729 32.9433 31.0596 33.2572 31.7766 32.8122C32.4441 32.3944 32.5924 31.1632 32.9979 30.3029C33.4034 29.4425 33.8632 28.5574 34.3552 27.5833C33.8088 27.5833 33.3861 27.5833 32.9608 27.5833C28.9236 27.5487 24.8715 27.702 20.8466 27.4251C16.7574 27.1408 13.677 23.5313 13.5682 19.4149C13.5286 17.8153 13.5682 16.2158 13.5682 14.4703H12.332C10.6657 14.4703 9.00186 14.4703 7.33553 14.4703C4.20809 14.4431 1.78277 12.5493 0.986691 9.52573C0.934755 9.38389 0.872791 9.24591 0.80127 9.11286L0.80127 1.5254ZM34.9807 32.9606H66.8732C67.212 32.9461 67.5514 32.9527 67.8893 32.9804C68.2186 32.9926 68.53 33.1327 68.7576 33.3709C68.9852 33.6091 69.111 33.9266 69.1082 34.2561C69.1552 35.0126 68.7546 35.4922 68.0476 35.6727C67.6838 35.7372 67.3135 35.7572 66.9449 35.732H28.7381V44.7089H92.721V35.737H91.5961C85.9511 35.737 80.3085 35.737 74.6684 35.737C73.5212 35.737 72.8562 35.2153 72.8512 34.3451C72.8463 33.4748 73.4891 32.968 74.6585 32.9655C78.2655 32.9655 81.8726 32.9655 85.4797 32.9655C85.8011 32.9655 86.1225 32.9359 86.4686 32.921C83.4672 24.5152 74.1195 15.0834 60.292 15.301C46.3186 15.5136 37.5593 25.3904 34.9807 32.9606ZM3.5826 2.84066C3.5826 4.70724 3.54304 6.46257 3.5826 8.21789C3.59819 9.14299 3.97733 10.0248 4.63801 10.6725C5.29869 11.3202 6.1878 11.6818 7.11303 11.6791C14.1129 11.7121 21.1111 11.7121 28.1077 11.6791C29.6603 11.6791 31.2179 10.6383 31.3786 9.17467C31.606 7.09547 31.4379 4.97178 31.4379 2.84808L3.5826 2.84066ZM80.278 59.0877C81.1927 59.0877 82.0086 59.11 82.8492 59.0877C85.3981 59.0086 87.8407 57.2162 88.2313 54.7044C88.5898 52.3903 88.4786 50.007 88.5799 47.6311H80.278V59.0877ZM41.1194 59.0704V47.6015H32.988C32.988 49.562 32.9559 51.4657 32.988 53.3693C33.0325 55.4683 34.0091 57.0605 35.757 58.2125C37.4035 59.2905 39.2281 59.105 41.1194 59.0655V59.0704ZM16.3223 14.5123C16.3223 16.06 16.3075 17.5632 16.3223 19.0663C16.3619 22.2803 18.6833 24.7328 21.8924 24.7773C26.4859 24.8416 31.0819 24.7995 35.6779 24.7773C35.9473 24.7904 36.2119 24.7022 36.4196 24.5301C37.0525 23.8304 37.626 23.0788 38.3529 22.1839H37.2181C33.1462 22.1839 29.0744 22.1122 25.005 22.2036C19.5511 22.3223 18.6611 21.8353 18.9083 16.1391C18.9306 15.5977 18.9083 15.0513 18.9083 14.4926L16.3223 14.5123Z" fill="#00639C"/>
<path id="Vector_2" d="M71.3505 60.6973C71.3422 62.7993 70.7109 64.8515 69.5366 66.5948C68.3622 68.3381 66.6974 69.6941 64.7525 70.4915C62.8077 71.2889 60.6701 71.4918 58.61 71.0747C56.5499 70.6575 54.6596 69.639 53.1782 68.1479C51.6967 66.6568 50.6905 64.7599 50.2868 62.6971C49.8831 60.6343 50.0999 58.4981 50.9099 56.5585C51.72 54.6189 53.0868 52.963 54.8377 51.8C56.5885 50.637 58.6449 50.0191 60.7468 50.0244C62.1448 50.0257 63.5287 50.3032 64.8192 50.8408C66.1096 51.3785 67.2811 52.1658 68.2664 53.1575C69.2517 54.1493 70.0313 55.3259 70.5606 56.6198C71.0899 57.9137 71.3583 59.2994 71.3505 60.6973ZM68.5716 60.6405C68.5667 59.0851 68.1007 57.566 67.2325 56.2755C66.3643 54.9849 65.1329 53.9808 63.694 53.3901C62.2551 52.7994 60.6734 52.6486 59.1488 52.9568C57.6242 53.2651 56.2253 54.0185 55.1289 55.1218C54.0325 56.2251 53.2879 57.6287 52.9893 59.1552C52.6906 60.6817 52.8513 62.2624 53.4511 63.6976C54.0508 65.1327 55.0627 66.3578 56.3587 67.2179C57.6547 68.078 59.1766 68.5344 60.732 68.5295C61.765 68.5273 62.7875 68.3213 63.7408 67.9234C64.6942 67.5256 65.5597 66.9436 66.2879 66.2108C67.0161 65.4781 67.5926 64.6089 67.9845 63.6531C68.3763 62.6972 68.5759 61.6735 68.5716 60.6405Z" fill="#00639C"/>
<path id="Vector_3" d="M65.2441 60.712C65.2442 61.3055 65.1265 61.893 64.8979 62.4407C64.6693 62.9884 64.3344 63.4852 63.9124 63.9026C63.4905 64.3199 62.99 64.6494 62.4399 64.8719C61.8897 65.0945 61.3009 65.2058 60.7075 65.1992C59.8088 65.1987 58.9306 64.9311 58.1843 64.4305C57.438 63.9299 56.8573 63.2188 56.5159 62.3875C56.1745 61.5562 56.0879 60.6422 56.267 59.7615C56.446 58.8809 56.8828 58.0733 57.5217 57.4414C58.1606 56.8094 58.9729 56.3816 59.8554 56.2122C60.738 56.0427 61.651 56.1394 62.4785 56.4899C63.306 56.8403 64.0107 57.4288 64.5031 58.1805C64.9955 58.9323 65.2535 59.8134 65.2441 60.712ZM58.9546 60.6626C58.9579 61.1273 59.1438 61.5722 59.4722 61.9011C59.8006 62.23 60.2452 62.4165 60.71 62.4204C60.9391 62.4233 61.1665 62.3807 61.3791 62.2951C61.5916 62.2094 61.785 62.0824 61.9481 61.9214C62.1112 61.7604 62.2406 61.5686 62.329 61.3572C62.4173 61.1458 62.4628 60.9189 62.4628 60.6898C62.4658 60.4596 62.4233 60.2311 62.3379 60.0173C62.2526 59.8035 62.1259 59.6086 61.9652 59.4438C61.8045 59.2789 61.6129 59.1473 61.4013 59.0566C61.1898 58.9658 60.9624 58.9176 60.7322 58.9147C60.2685 58.9232 59.8258 59.1092 59.4951 59.4344C59.1644 59.7595 58.971 60.1991 58.9546 60.6626Z" fill="#00639C"/>
</g>
</g>
</svg>
