<svg width="38" height="38" viewBox="0 0 38 38" fill="none" xmlns="http://www.w3.org/2000/svg">
<g id="task_alt">
<mask id="mask0_71_931" style="mask-type:alpha" maskUnits="userSpaceOnUse" x="0" y="0" width="38" height="38">
<rect id="Bounding box" width="38" height="38" fill="#D9D9D9"/>
</mask>
<g mask="url(#mask0_71_931)">
<path id="task_alt_2" d="M19.0027 34.0416C16.9223 34.0416 14.9668 33.6469 13.1362 32.8573C11.3057 32.0677 9.71334 30.9962 8.35925 29.6427C7.00513 28.2892 5.93312 26.6976 5.14322 24.8678C4.35332 23.0381 3.95837 21.083 3.95837 19.0027C3.95837 16.9223 4.35322 14.9668 5.14291 13.1362C5.93259 11.3057 7.00431 9.71335 8.35806 8.35925C9.71181 7.00513 11.3037 5.93312 13.1338 5.14322C14.9638 4.35333 16.9192 3.95837 19 3.95837C20.3174 3.95837 21.5942 4.12635 22.8304 4.46231C24.0667 4.79827 25.2491 5.28393 26.3777 5.91929C26.6822 6.08982 26.8812 6.33543 26.9745 6.65614C27.0679 6.97687 27.0131 7.27628 26.8101 7.55436C26.6071 7.83245 26.3387 8.00651 26.0047 8.07655C25.6709 8.14658 25.3486 8.09634 25.038 7.92581C24.1124 7.4082 23.1385 7.01338 22.1164 6.74136C21.0944 6.46934 20.0556 6.33334 19 6.33334C15.4903 6.33334 12.5017 7.56702 10.0344 10.0344C7.56702 12.5017 6.33333 15.4903 6.33333 19C6.33333 22.5097 7.56702 25.4983 10.0344 27.9656C12.5017 30.433 15.4903 31.6667 19 31.6667C22.5097 31.6667 25.4983 30.433 27.9656 27.9656C30.433 25.4983 31.6667 22.5097 31.6667 19C31.6667 18.6936 31.655 18.3967 31.6316 18.1094C31.6083 17.8221 31.5682 17.5273 31.5114 17.2248C31.4586 16.8876 31.5165 16.5653 31.6849 16.2579C31.8534 15.9505 32.1071 15.7511 32.4459 15.6598C32.7647 15.5684 33.0607 15.608 33.3337 15.7785C33.6067 15.949 33.7696 16.1947 33.8224 16.5154C33.8955 16.9153 33.9503 17.3198 33.9868 17.7289C34.0234 18.138 34.0416 18.5617 34.0416 19C34.0416 21.0808 33.6469 23.0362 32.8573 24.8662C32.0677 26.6963 30.9962 28.2882 29.6427 29.6419C28.2892 30.9957 26.6976 32.0674 24.8678 32.8571C23.0381 33.6468 21.083 34.0416 19.0027 34.0416ZM16.7529 22.3981L31.5388 7.58785C31.758 7.36864 32.0295 7.25243 32.3533 7.23924C32.6771 7.22604 32.9628 7.34336 33.2107 7.59117C33.4378 7.81833 33.5514 8.09532 33.5514 8.42215C33.5514 8.74895 33.4367 9.02703 33.2073 9.25641L17.7546 24.7335C17.4684 25.0197 17.1345 25.1628 16.7529 25.1628C16.3713 25.1628 16.0373 25.0197 15.7511 24.7335L11.4061 20.3884C11.1869 20.1692 11.0747 19.8937 11.0696 19.5618C11.0646 19.2299 11.1767 18.9493 11.4061 18.7199C11.6355 18.4905 11.9136 18.3758 12.2404 18.3758C12.5672 18.3758 12.8453 18.4905 13.0747 18.7199L16.7529 22.3981Z" fill="#0092E7"/>
</g>
</g>
</svg>
